<mxfile host="Electron" modified="2023-05-15T17:56:54.428Z" agent="Mozilla/5.0 (Macintosh; Intel Mac OS X 10_15_7) AppleWebKit/537.36 (KHTML, like Gecko) draw.io/21.2.8 Chrome/112.0.5615.165 Electron/24.2.0 Safari/537.36" etag="KivDB4mHbjnYh4ftVOTv" version="21.2.8" type="device">
  <diagram name="Page-1" id="1O9ykVuYnMVlYzRQei5F">
    <mxGraphModel dx="913" dy="506" grid="1" gridSize="10" guides="1" tooltips="1" connect="1" arrows="1" fold="1" page="1" pageScale="1" pageWidth="850" pageHeight="1100" math="0" shadow="0">
      <root>
        <mxCell id="0" />
        <mxCell id="1" parent="0" />
        <mxCell id="-fs7mUq5DZX36L7Z1rua-3" style="edgeStyle=orthogonalEdgeStyle;rounded=0;orthogonalLoop=1;jettySize=auto;html=1;entryX=0;entryY=0.25;entryDx=0;entryDy=0;exitX=1;exitY=0.25;exitDx=0;exitDy=0;" parent="1" source="-fs7mUq5DZX36L7Z1rua-1" target="-fs7mUq5DZX36L7Z1rua-2" edge="1">
          <mxGeometry relative="1" as="geometry" />
        </mxCell>
        <mxCell id="-fs7mUq5DZX36L7Z1rua-1" value="Question:" style="rounded=1;whiteSpace=wrap;html=1;" parent="1" vertex="1">
          <mxGeometry x="80" y="270" width="120" height="60" as="geometry" />
        </mxCell>
        <mxCell id="-fs7mUq5DZX36L7Z1rua-15" style="edgeStyle=orthogonalEdgeStyle;rounded=0;orthogonalLoop=1;jettySize=auto;html=1;exitX=1;exitY=0.25;exitDx=0;exitDy=0;entryX=0;entryY=0.5;entryDx=0;entryDy=0;" parent="1" source="-fs7mUq5DZX36L7Z1rua-2" target="-fs7mUq5DZX36L7Z1rua-14" edge="1">
          <mxGeometry relative="1" as="geometry">
            <Array as="points">
              <mxPoint x="450" y="285" />
              <mxPoint x="450" y="266" />
            </Array>
          </mxGeometry>
        </mxCell>
        <mxCell id="qCBm-YpllvwDOKdPbQac-4" style="edgeStyle=orthogonalEdgeStyle;rounded=0;orthogonalLoop=1;jettySize=auto;html=1;exitX=0;exitY=0.75;exitDx=0;exitDy=0;entryX=1;entryY=0.75;entryDx=0;entryDy=0;" edge="1" parent="1" source="-fs7mUq5DZX36L7Z1rua-2" target="-fs7mUq5DZX36L7Z1rua-1">
          <mxGeometry relative="1" as="geometry" />
        </mxCell>
        <mxCell id="-fs7mUq5DZX36L7Z1rua-2" value="discord_bot.py&amp;nbsp;&lt;br&gt;or&lt;br&gt;cli.py" style="shape=process;whiteSpace=wrap;html=1;backgroundOutline=1;" parent="1" vertex="1">
          <mxGeometry x="290" y="270" width="120" height="60" as="geometry" />
        </mxCell>
        <mxCell id="-fs7mUq5DZX36L7Z1rua-4" value="OpenSearch" style="shape=cylinder3;whiteSpace=wrap;html=1;boundedLbl=1;backgroundOutline=1;size=15;" parent="1" vertex="1">
          <mxGeometry x="308.75" y="110" width="82.5" height="80" as="geometry" />
        </mxCell>
        <mxCell id="-fs7mUq5DZX36L7Z1rua-6" value="Fetch &lt;br&gt;Context" style="text;html=1;align=center;verticalAlign=middle;resizable=0;points=[];autosize=1;strokeColor=none;fillColor=none;" parent="1" vertex="1">
          <mxGeometry x="260" y="203" width="60" height="40" as="geometry" />
        </mxCell>
        <mxCell id="-fs7mUq5DZX36L7Z1rua-9" value="Return &lt;br&gt;Context" style="text;html=1;align=center;verticalAlign=middle;resizable=0;points=[];autosize=1;strokeColor=none;fillColor=none;" parent="1" vertex="1">
          <mxGeometry x="380" y="203" width="60" height="40" as="geometry" />
        </mxCell>
        <mxCell id="qCBm-YpllvwDOKdPbQac-3" style="edgeStyle=orthogonalEdgeStyle;rounded=0;orthogonalLoop=1;jettySize=auto;html=1;exitX=0.5;exitY=1;exitDx=0;exitDy=0;entryX=0.5;entryY=0.667;entryDx=0;entryDy=0;entryPerimeter=0;" edge="1" parent="1" source="-fs7mUq5DZX36L7Z1rua-10" target="-fs7mUq5DZX36L7Z1rua-13">
          <mxGeometry relative="1" as="geometry" />
        </mxCell>
        <mxCell id="-fs7mUq5DZX36L7Z1rua-10" value="Local Model&lt;br&gt;(flan-t5-large)" style="rounded=0;whiteSpace=wrap;html=1;" parent="1" vertex="1">
          <mxGeometry x="660" y="190" width="120" height="60" as="geometry" />
        </mxCell>
        <mxCell id="-fs7mUq5DZX36L7Z1rua-11" value="" style="endArrow=classic;html=1;rounded=0;exitX=0.25;exitY=0;exitDx=0;exitDy=0;entryX=0.145;entryY=1;entryDx=0;entryDy=-4.35;entryPerimeter=0;" parent="1" source="-fs7mUq5DZX36L7Z1rua-2" target="-fs7mUq5DZX36L7Z1rua-4" edge="1">
          <mxGeometry width="50" height="50" relative="1" as="geometry">
            <mxPoint x="400" y="410" as="sourcePoint" />
            <mxPoint x="450" y="360" as="targetPoint" />
          </mxGeometry>
        </mxCell>
        <mxCell id="-fs7mUq5DZX36L7Z1rua-12" value="" style="endArrow=classic;html=1;rounded=0;entryX=0.75;entryY=0;entryDx=0;entryDy=0;exitX=0.855;exitY=1;exitDx=0;exitDy=-4.35;exitPerimeter=0;" parent="1" source="-fs7mUq5DZX36L7Z1rua-4" target="-fs7mUq5DZX36L7Z1rua-2" edge="1">
          <mxGeometry width="50" height="50" relative="1" as="geometry">
            <mxPoint x="380" y="180" as="sourcePoint" />
            <mxPoint x="331" y="186" as="targetPoint" />
          </mxGeometry>
        </mxCell>
        <mxCell id="-fs7mUq5DZX36L7Z1rua-23" style="edgeStyle=orthogonalEdgeStyle;rounded=0;orthogonalLoop=1;jettySize=auto;html=1;exitX=0.5;exitY=1;exitDx=0;exitDy=0;entryX=1;entryY=0.75;entryDx=0;entryDy=0;" parent="1" source="-fs7mUq5DZX36L7Z1rua-13" target="-fs7mUq5DZX36L7Z1rua-2" edge="1">
          <mxGeometry relative="1" as="geometry">
            <Array as="points">
              <mxPoint x="720" y="360" />
              <mxPoint x="450" y="360" />
              <mxPoint x="450" y="315" />
            </Array>
          </mxGeometry>
        </mxCell>
        <mxCell id="-fs7mUq5DZX36L7Z1rua-13" value="Online Model&lt;br&gt;(GPT-3.5-Turbo)" style="rounded=0;whiteSpace=wrap;html=1;" parent="1" vertex="1">
          <mxGeometry x="660" y="280" width="120" height="60" as="geometry" />
        </mxCell>
        <mxCell id="qCBm-YpllvwDOKdPbQac-1" style="edgeStyle=orthogonalEdgeStyle;rounded=0;orthogonalLoop=1;jettySize=auto;html=1;exitX=1;exitY=0.5;exitDx=0;exitDy=0;" edge="1" parent="1" source="-fs7mUq5DZX36L7Z1rua-14" target="-fs7mUq5DZX36L7Z1rua-10">
          <mxGeometry relative="1" as="geometry" />
        </mxCell>
        <mxCell id="qCBm-YpllvwDOKdPbQac-2" style="edgeStyle=orthogonalEdgeStyle;rounded=0;orthogonalLoop=1;jettySize=auto;html=1;exitX=1;exitY=0.5;exitDx=0;exitDy=0;entryX=0;entryY=0.5;entryDx=0;entryDy=0;" edge="1" parent="1" source="-fs7mUq5DZX36L7Z1rua-14" target="-fs7mUq5DZX36L7Z1rua-13">
          <mxGeometry relative="1" as="geometry" />
        </mxCell>
        <mxCell id="-fs7mUq5DZX36L7Z1rua-14" value="Haystack Prompt Pipeline&lt;br&gt;&lt;br&gt;language_model.py" style="shape=process;whiteSpace=wrap;html=1;backgroundOutline=1;" parent="1" vertex="1">
          <mxGeometry x="480" y="230" width="140" height="72" as="geometry" />
        </mxCell>
        <mxCell id="-fs7mUq5DZX36L7Z1rua-25" value="&lt;b&gt;&lt;font style=&quot;font-size: 48px;&quot;&gt;&amp;nbsp;&amp;amp; LLM&#39;s!&lt;/font&gt;&lt;/b&gt;" style="text;html=1;align=center;verticalAlign=middle;resizable=0;points=[];autosize=1;strokeColor=none;fillColor=none;" parent="1" vertex="1">
          <mxGeometry x="465" y="26.35" width="240" height="70" as="geometry" />
        </mxCell>
        <mxCell id="-fs7mUq5DZX36L7Z1rua-27" value="" style="shape=image;aspect=fixed;image=data:image/png,iVBORw0KGgoAAAANSUhEUgAABc4AAAEcCAYAAAD+yScWAAAACXBIWXMAACxLAAAsSwGlPZapAAAAAXNSR0IArs4c6QAAAARnQU1BAACxjwv8YQUAAIGxSURBVHgB7d3rkxzXeSb452RV40JJy8bsyh+0azHBGc1OxEyYDe5GjETYYoGOIQmuwwQ4oQiviEuRmuAHRtgA+AcIBf4BBOiN0AdHDFEAG1xFKJYEHDsGSI+Jgk1wuGEN0XRoI7Syh12Ux/xA7RpN8YLurqo8e96TVY1qoC9V1VmVb2Y+P6kbtwYIVGWezHzOe94DEBERERERERERERERERERERERERERERGtxYCIiIiIiIiIiIiIkrH3kIUeFtdnA9DQ+KIREREREREREREREfVhcE5ERERERERERERE1IfBORERERERERERERFRHwbnRERERERERERERER9GJwTEREREREREREREfVhcE5ERERERERERERE1IfBORERERERERERERFRHwbnRERERERERERERER9GJwTEREREREREREREfUpg/SqVKexvBwCpRmgMwNj7gVMCOs+hLHT7vP0mr/Xmmb3a5rdn2i6n/sIJczBYgHl8hwa9QUQUXZU33Dn+1dCPx5EpXsRtXfDBG5cQAiD/vEg3OBPafrPtvut/NjYj9w0arP7a03U9zdBRERE+lVqwOLPQ0yVZ9DGfTDR7kSeGSxuuifFj9CJmnj3tTkQERERFZAB6SFBebvtArHogAvDHnY/M4PxkuDcBenRBygFDd4YEyniQ/LtFfcQXIEpuQdhK+NBiIkwC7A2HhuC0g0E5gPUH+XYQERElKZaDWg0p7HcORAX1fjnhRDrheLJmutOurvnBjOHUqnBIhwiIqIN7D1koYfF9Vl2HRkBg3MNfvtQxR3CJxEH5ZO48d2IC8zQ8B8musYgnWhC+oPyIHgSEwvJB2XiscHgIgI3NrAqnYiIaPwqVaDdrvjCGpSedBPpIfRwzwlWnhUa6Exdw3v1JoiIiCjG4DwXGJynxbdhaR9z78BxpB+Wb8Av22wgMJfwV7MXQUTJkbA8+spRWFllYtzEmVU8Ftxlzj3EX0O5XGc1OhERUYL6w3ITHIXqZ4VVZLXaNQTBRbwz2wAREVGRMTjPBQbnk5aZwHxNC+5cu8gQnWiLqpcr6JiTbhyoIB9ccG7OsBKdiIhoRCttWJZ7YXkFmdYtvjHmHEN0IiIqJAbnucDgfFKyHZivgTfDREPx1eX3HHPfO56xyvLhWNRRsqcYoBMREQ1gJTDP03PCnbrPDZ2pU2znQkREhcHgPBcYnE+C9DCP7FkXMofIJX8zXMP1C+dARKsVJTC/EwN0IiKije1/GlgwxxC4++hcBuZraribhDqfG4iIKPcYnOcCg/NxkirzVuekOz6PoxBYTUK0oqiB+Z0YoBMREa0W9zDfB2tfco9jMygkO+8+neKmokRElFsMznOBwfm4fLsaImhdzW+V+WZsnQE6FdaRN92EWcED8zsxQCcioqLrtWUpVGHNpuI9lPjcQEREecPgPBcYnI+DtGaxeAPFWXK5AQboVCCy6WdkzrrvhaC1NN1lp4bzj3F5NhERFUuvyjyyrxS3sGYzfG4gIqIcYXCeCwzOk/adQ9Kn8AzoDrwRphyTtiz2npOwrB4bCKvPiYioSOJe5sfdM8Jp0ADsGffc8DKfG4iIKNMYnOcCg/MkPXTopHtFa6D1Wff6bCu/jEZ9AUR5wCrzUTVZfU5ERLkWt2bZhVbnJXcTXAUNwTYR4WX8pwssSCIiomxicJ4LfNGSwtB8MPIatVo3sPfpoyDKuiNvHXOh+VUwNB9F6FeiHH6T1XdERJQ/lRpwpbnb3fe+zdB8FCZEYE67Z4YP+dxAREREaWHFeRL8zZypg4bVQKf8DJdhUub41iw7T7s52yooCXMI7EG2biEiolyQ0HzRheaBC83ZzzwBdh7XL9wPIiKiLGHFeS7wRduqb1dDhuYjq6DUnvfV+kRZUb0cItp5g6F5omZ85b68tkRERFnG0DxpEjqcAhEREVEKGJxvhYTmQesqaGukfcvep+fjSQgixapvzbA1y9i4CYngBg5droCIiCiLGJqPgW3i+gXuh0JERESpYHC+FaVWjTfFSTEhq89JNR+aW4bmY2WnEbiJiSNvspcpERFlC0PzcWmAiIiIKCUMzkf10PerLuxluJM0X31+6Aarz0mVldDcBbs0AbbO8JyIiDKl9UuDUut1huaJsuh0XgQRERFRShicjyLua87K6PGZcQ8eV+NNV4lSxtA8JQzPiYgoIx77gXHJ+Uvu+WAGlKQG3vtxE0REREQpYXA+CrZomQAT+k1X2bqF0sTQPGUMz4mISLn9TwO/XjrmrlnHQUmysMHLICIiIkqRAQ1Hqs2lFzdN0hw65YN4r94E0aRUL4fcCFQDs4C22YfXHp0DERGRJr2+5qX2++5HnGRPlJ3H9Qv3g4iIKKv2HrLQw+L6LIunR8AXbVhSbU6TFrduYd9zmhSG5orYaZSjN/x7QkREpMrfGr8ZKEPzpEnQcApEREREKWNwPoy4tznbBqTCSKX/DfzOoQMgGrfIvAGG5prEExnVNxhMEBGRDpUqsGxOsn3jmHQ610BERESUMgbnw2C1edqmEeEN9j2nsTr65mnIKgfSJkTnnrMgIiJKm2/Rgt0w4D3pWNg6NwUlIiIiDRicD4rV5noY1Bie01gceesYLDf3UsvYAzh8he8PERGl7GODUov3ouNhsWz/GEREREQKMDgfVLBcAekh4fnep0+DKCm+h3Z0BqSbwWkculwBERFRGqRFS/vLCgtqxmYOf/0aNwQnIiIiFRicD8oEvDlWxxzH3sNs3UBbJ72z481AKQsCc5b9zomIKB0tg8i+AhoH6/7/MoiIiIiUYHA+CN+mBRWQQrbK8Jy2zN4jy61DUFZIv3MukSciosmqPA8su3tPbgg6JraJ6xfOgYiIiEgJBueDYJsW5Rie0xYc+rMD7GueQca9Z2zZQkREE/WlgQmOgMalASIiIiJFGJwPJHgSpBzDcxqBtPsIAvbKzyq2bCEioknxvc3bFXAV6rhYdDovgoiIiEgRBucDsTOgDGB4TkNii5asY8sWIiKakG0G1nLPo3Gx9hLe+3ETRERERIowON+M9DdnH8MMceH5Q4cYpNHmqpdDtmjJAbZsISKicavUgMXl0F10GJyPh0VguCkoERERqcPgfDNTbVabZ41BjeE5bSoyb4DywRie70RENEafcM+jsbJNvDPbABEREZEyZdDGOphxQSxljYTne59u4vqFcyC60+HLVfc5R5NiZgHWzsFEH8CaOff9Bf9zbTT9LwelaQSdafdg6r4t3+cGtj3u1x9AXl4DgwqOvHkU5x/j+U5ERMlrLcqmoH+E7HL3BXD3B+4+AaU5lNx9gvU/d5vBNDpG7hVCGOvuFUyI+D5h3HuJWPdxCkREREQKMTjfjJWbRybn2WTqeOj7H+Dd1+ZA1C8XFcouGEfnHCJzEbOPNzAK2Vizvb2CwBzI/vJzW3P/nkuoH1wAERFRUnyblmaIUgYnmy0uIsDLI1dzf68GfPyLGffnzLh7p4r79uGxtLDsdK6BiIiISCEG55sJzH2g7DLmDXy7ug/v1ZsgEnG1eYissmi4Cb1TI4fl/eKQ+aL/qF6uIUK1G6CHyJ4Q0Q7pWV8DERFRYnptWrLU4dLWXRh9asubbf6kJp/nuh91VKpAu+0CdFtNLkR3f1duCkpERERKsZR6M3sP3UCuWjoU0hymyvvQqLMSlYAjV+aRzWC4icg+g9n9DYyTbJoaB+gZrMo3Cwi+3M2qcyIiSkylatBqvy3fg3p23oXZz06kX3jleWB5oQoTHMPoz0oWnfb9DM6JiCiX9h6y0MPi+iz3uRwBX7TNWDPuvn40fjNodU6DKLPV5tHLCG7tGXtoLur7mzi/v4bA7ga6PdIzw053q86JiIi2rlaTz/IsUIF6LjTvdB6Z2CabjR8B775Wx1R5Dwz2uf/+KPuMNBiaExERkWYMzjdjbAjKAVvFd55moFZ02ettLlXm+3D+ieMTr6L2AfrjLjy3GduwKzjme7cTERFtVaMprUkysPK0G5qnEUI36vBh/dS3qui0dw8RoNsRw3YiIiKiiWFwTsURmNN46Ptsu1NU2as2byJwofkkqsw3ItXnmQrP7TQ6O6sgIiJKQoSHoVqKoXm/Rg3+79AL0A1Owdrm+r/B/dr1CwzOiYiISDUG51Qssllopcpq1CLKVrX5nG/NIlXfGkh4bu0zyAqDYyAiIto64/6nOTiX3qmnVLU76QXo5X9WQ9TZ5wN0YK1VcxdBREREpByDcyoYE6LVyuCmh7Ql2ao2b7rQfJ+6DS5f3V+HjU4gG0IculwBERHRVrQ68lnxakVbV1u13R+gd9p77mjLYtHp/DGIiIiIlGNwTgVkjuN3Dh0AFYg5imyI27NoC817Xn3iTGbatmSvnz0REWnyvZq75HUkNNe6UlHC5xeh3Z0tXHyA7gJ/bgpKREREGWBAG3vo8Dw3CM2lBUyVd6NR1xlQUnKql0NEZh5ZENjdatqzbOTwm2+4cVH/5FMQ7EH90TkQEREN6/eeAz798iAivA6V7Flcv/AsiIiISKe9hyz0sLg+y+LpEfBFo6KaxnL7LCj/2qghCyxOZCI0F6Uvpd95E9pFHa4sISKi0XS+cPcQaotnslFtTkRERJRxDM43YzbaDZ4yzeAAW7YUQGA0b+oVM6jj1cfPICuklUyUhc1Cg2OovsHNgImIaHjRDgNj7oNODbY6ISIiIho/BuebiexHoPyK7GlUqgzW8iobm4I23QRdNvqG95vd33CfX4ZqdhrtHYo3dSMiIrWWOjKx/QD0se7+9U9BRERERGPH4HwzxjRBOWZCtFrcRDC3srApqKllpkXLnYJbNff3171PADcJJSKiUbT8Y5LO4oq2bYCIiIiIxo6bg25GWnlEeAOUbzbag3df4yaCeZKNTUGbOP/4bmTZkcs1dynRHU4Ht3b59jI0Ot/yZnsFUfk+N17OuLsHqeR3P2emfWX/ak1Y6YHvJlVM9AEC68bWcpMbtU6If6++EgKdGXf/EsJKqwn3PsUbna/3niGeBLNyniy490++ldUwH8Xvn/za4hzPo5ypWfcuX7x9vLStO7dL921+rPg9LtY4TnJ2nu897J6T7D9CX3h+E9dn/wkoH2o1oNGcRmvZjdcld21155+x7lor47Yfw2X8lmNwrePQnYdyre2O3bDu+ms+Qglz/vwsl+fQqHPcTsud762197r7ot0w5t5V769Y/z0Wq99nP/ZGH8EG8+69/gBRtMDn2Az67UMVdPCAu366897MdM/1sO8r4musf8/d/XTv/X5ntoE8+fYfhAimKv78kNfi7nMjvOv3WNNcc9zrRE1150IRNwftjX3t9szKMe7fTxOvBN/sPY3vLz/ou5Zd88UMkbst+29LFv/zN+L/xgQxON+MtPFotW+C8q7hBpF9oPyQNi3G6N4ANooOYvaJi8gyCeminTeguSWObLyapR7yWlQvu6A8eNjdyFbc3UIFWyeBegOl6BLqGT/uNZFJQne3go55uPs+hRgfuYGdc2NrA0F0LbOrZYqsetV9Wuw7t+UhxiYYDLtwx7oQ3dhrCNz5XvdtvbKpUjXuGSCCPlfdPesjoGyq1Nwp+PM4KDKROw+DypohQnJciCQTW+587Exdw3v1JihZa4VEcUAUYrITb7ffa2s/YJiukITlUXQAJpBV0Vs5Nho+TC8F7r663MjMBJlka8udA36y3gSyD9kMkievxdzK69NyE4hpjntFCc6/VwM+/oULyIMnu88jFSRL3tNr8TFfuoZlN2G47WvuyfJHmAQG54N46PD8mG9oSAODfbmbwS2yw1euJhT2jYcEiK8+no/JmsNXjrvX+jS0ytNrPW5+IuQrR92NyYHxnj8+XLvobn5eZiX6CGRSo20PIHA3p+lOWjXdA+AllM3FTAekeVf7mXunPp5BZOV4OZ5sUL6p7oRZxs71ONzc7QKJD6GOPYvrF54FZUelCheqxoEZSk+m+1wp1Zn2krt+XORzz4h6Qfn4A8Atcu+1BKyBuYS/mmXBQpokMLeQFboVjEcDES7Cli+pmxzzkwV4eExh6qDiSSU5FyYdpOsKzpNdsdYbC5faRxHAjYcTfH+tO96Ne5acwnlAahz+R3e3WcO4MDgfxEOHzrhX6hgo59zNxfUL2W6bQbEstGmJ7L7uBpvZ58PWe+YnHMYMh+1aNha/h3KdOz7x99GHavYUg9dNpPkeDabpbivrCKJzrERXoldd3jEnlUwk33DHyMs4/9g5aCeVU//wiz0uEHsf2licwruzNZBuK+Fq+5g7/9y4rbFfvm9xUEdUPsdK9A30V5SrmPwYibS0cEGTOccJkwl6qOomVtpSXFTBZCy4YHQX0uYry/3YJ2GqwkmlbvWyTCCOu6WVquDc5SPXX70fW6Xq+tadIOxMvYgdS81xBegMzgcRzxBeBeUfH0byQX2bFjPngoM9yBPtvc6tfQav7q8jCUeuTPYGKLC7xxpEHvozqVyWm/oQabKodwP0Jug2qS7XE3wOJmvvZfWycZOtk27JYd25ff9YXiN9gfmd3ESrOaU6QI8rhPe5d+lt6GJd0Pks3n21DtKpV10+3urSMbB1FzycYoDetaqq3PZaD+gtEBmKD5pqalv3TDpo7LR3470fN5G07xw6hgBnMFnptp996PtuosC4INXICrcsnS/jq9jXVXF+wx0fD2JU6ieE/XXMBejuPrNRR5LG3xg+D+JZ2QYo/2RlgcyQUsb5i7Vmk76JGr9g8Uy8gaBSgXkYWdUxBzAOsjJDWhoFgWyAHSJtBlW/UuTIm7o3m50UCczl/YmM7rZTa+m9l4fffL3bg53W0kn4fZXNPqsXd6G9WFd+3Oz2DzdH3nyfxwflhgTmUmzVal/tFlxVkCmmilJ7Hg8deh3froYoqt77+Od/e9a9l9Ku9Wy3ajZHz4cm9CvESq2r7v0+Wej3W5hSsvfZkiXsPXQ1hdBcplY/QBrkGJJ/swlkZdlW+7enoeLfLxkD9z7txsHvn/GTAPkz+rO6jI3/8e/2Ybl1w42JNah8j/117L+4YP8kKk8b/3dOCIPzQdlI/7JSSoLMoB0HZZsxFejVzMQy9WFJGxRjG9DKjil8nozkJ4LijT9v6AzWbA1HrswXNlDzExpvvpHJwPxOxh6MA/QrZxmQ3sW4Cb3vIinPu5zuw7fchMXOD92fexSZYPe44+NDTpYNKfDVoqSF9MP/dnW3e354I5uB+R0MDnbDo7OFCVSlilLCTgmRW+2b8fvoAphcheVrMaEPwCRA3/t0Rq4bYxAkWHAl54wEi2mNA3bC1wc/SXD4tB8zsj72rTDuvAiO+UmAXoiem7FwhOOjNz62Oqf9KjxjQuhm/LjWwod+9VdC4TmD80G9+1p94gMRpYNV59kmgaDmXtsmx6tXOvZlqOWOiUNybGSQhKfS3zopElJJKKv5PJEKePk7ZvU9G9WRt47FExo2yxM9d/MV6MH7DEjvYBN4yIyrzKfxxfJpv2mk7vN6LcZPlh2+8jYnVyhz9j8NLP3dMRcavd+tSs4RX7n3vg+T82qluvzvrvrAXG0V5biZ0FegS0hYzOrzSiLP/vLaBW4SIs1gsWTmMCm/878e8KsyYHNcdGjiEN1PJh7K/gSTNb8c6utlYvhKc3c8GZS199mEPuiX6vOHDhs/AbAFWwvOq2/lcfnC+krmBKgIWHWeZZHyymJjTyGv/Ganmtu1ZLgSorMjmeP66JWzPqTKBvcA4sLzw1fyPx732uYgOpPB4HNAdld3NcGHDEhXhFt6LWrukGle2Y1ox1XYjD+4Guxz129F4fk9cj8RgmgtvSrzX5teO4a8hq27fJi89+kPcxWoVp6XXszV7LbVGRcTdtv1FG+S2/ey3wLZBLTUvpF6Na5sdDlu8eqMNxCVpNVjkSaaKisTTNkM0K27Vxz8Of33nnPPn//PwXhi2ITIprj6HPZ1NJq7/LV7RKMH5xKaR51kHuSz4q9mL4K9zotBqs4pq/T2srZu/Mj9xodWbxsam+E+50n0aJfQ3KKKrDE4netK5ZUq88I8uO/uVp8Xd1l4v1H7nPvQfHG3D5uBvBSyxP+e7ysozPlqGygN8YA5SQz009VfZV6YwNXs9v/eLFdbrmrH8uubMMFZMDBfWzxZUqzqcxONfp8tr5NpywRMyiGybaJRH+91SyYI4h7XxcoBVzFhZgP0QVckyHXu//vyuJsceR15mByR47XV+s9YbO4eNTwfPTiPIjfDVL6Boum0n8FWmupTVkwXutdbVsXtLPQGCMZdZPMushehVdItTyZpqz3asxqar5BK5RyG50ffPJ3vKvP1+Orzs2zdMmKf89WheYh82Y2yTT88/3xZJrt5v0+rPfYDg18Hp3NeZb4eN26bs5msRpYQ6E032eE3+yxqO5ZhmTDePDSXGySuYcT77F57FhXHlGlinL5z6JibIEi/ql4NE3b3QsiOpWjz+xppYfWpqbnr3GnkikwAt/5i1PB8tOD88OUqfP/R9qcomvd+3HSv2jOgAsjYQEhAe3sFmgXRNeSd9nYt7R0ZfQDYQo/2zIfmPTkKz2UC58iVG5lvr7E1fb2tMzqhlYRh+5znOzTvchMrEp6zpc9a5LwJQZMVVyvvwueL7+e7n++m4mXvew+9nYn9oOIe5vvwKeYLOtmxRSb0GyR+5+kiHPPTvt/9MOQcSLuneT+LDzAuMmEWn0O0iq0jS76yrbnhr8uYudyuuXE+p4UtfeH5kD3Phw/O5SbWmPiFLJeKWYkhLVsM8tunmHoqQ19AKV1BUIFWhWjT0qO4XUuQ4U0XR/m7S9Cci9C8x4fn2V4NJPdR0U5ZsVeQKq5N+N7WO98vcEg6XJ/zX7aMC81fR25D8x4Xnvue5wWeVFmPsd8ETc7tzdFcaG44bsf2oeVeD62tPHqbfsY9zN9mhewWBeZ0IfqeR0O2H2m1zug6toKrGIe9h093V2rQKraJ6xf0PvOuZaNWPr4NWft4fkPzHt967P9AoznU/eXwwXkUyANrGP/giyaK6p3ZGsPzAojY6zxTLB6AXpdQFFHUgFY20HyMbCJ4cqgvl97Z2dkIdBhnVPRAHoUPzY082ISgfrt1bQw5YYP2Of/BFYOOfQnFmXTZjc7O15GGr4dyLVNaIMTwdmIkNJfKtKDF8PUuvnLvbVXhea+Peatzmpt+JkyC07xXnhsz+H22n0gwugo5gij5bhB7D58t+Cqb9UV4GZmyQSuf79WAT6f25K89y7r2+OvEv3564N8wXHDuH2j6HsLrB4vd+4/hef7JRgJZWIpIMc2b65WCBoqivNSAVibTgcPglan+66KcLqm00yhHb2SuEpWh+WaKGp4P1uf8D98DWsGxwrX3kev64SuT/zf/CoqDczdxwnvT8WNoPgBF4bkEP2/9Yo/vY86gbzyk8jzXe4DZEN/+g3DTL/ObgSqswH5ntoEkSaU5bBW0Ntu5iEyxzTV/Wq51f++udWilU6iQGnvUpeHHB+13Plxw3uYSjbtIeA57ApRfy23efGVBdcT+z5PRRP3RORRFPKmq9N/rQtdqRquVRWeAzYskUI4D2jwL0bnnLLKCofmgdheyPcdmfc6lr/lnN91DTVSUSqB+0lP5pZH3eBhVxX3s2KF4v442q87HiaH5ELrhedqTOT+pAdvMnJtcLHZh39iZeq43DDWlze+zS22N95/JPnf5inpOQK3P1v3eh1li7TorEv7WFPRaJ4UrP/TX+gEMHpzLQ1/QvxxF8eZvk3b9whnYaI87GJug/DF4GKRfR3Ul8fg2a9FL70aonaiC7Np8GWl7h1Sah8g7Yw+kUok6LIbmw3Lh+c63USwbryb5rzDdzUCLSh5uXsIkxZtGaX3WcccDhmvdRYNjaD4CF5632umPUV/9ikXJvAAaL2PeUNvffquCTdq1PPT9KjS2ALL2IyTlO4eOsaf5JpZtxtq0QO4cbt71c34zUHOywNe6Xb7f+QAtWwYPzu+qNuds7irvvjaHqLNP9aZ4NCpuEpoNiic43A1m0Wjucx6o7oW/MWlbsFE17uHL1dWT3Dknm5Vrb+0R+fM/BA1jj5sUeQVFsl6f86qbc1lelo2aQhTbHhy5XMNEld1t/QY9QdM0TC9eGk7rlwal1usMzYe2B3sPpztu/59/ApTK0j6hARojE7qwKa/PNpWNV08YpRsnmmQqzh+qzrjnpJy2ekxMA3/9WvZWklvzy1U/ltC83d6X/81ANzXjW7bEBRPrGiw4v6vanNYkyzWuX6jCRs+w+jxnht1lmybPKA4VAlO8inPNfc5txjdW6+xYezySQN1ovaEfFzuNjtHbsuXom9Jagy0VRmFQzcSKgmSs3edcWrRgcbc7zov+UNMV/NFE2/i0IlnZorRQyIYs6hiDx35g3Bv/EjdgHZWtKthA0roR9UXQuM1g79P5bB+23Fn7PluqzdVOqAU3sFV+FUGreMVeQ7N1ZI+9u41VyyCyxSpSWVvcsqXR3PD+crDgfM3e5oab0qzn3dfqrD7PGQNOHOmn9CHHLBSqv3lP3Oe8CZ1CZFlg1l5dYe8pZlWqVOEfUrjHwZG3ireRY7LS6W2dlrX6nH/sXoF24SuB+thd6NzzQ0zKVBnuoVLrxLdx48sRUHL2Pw38eukY+/puSdxWKc1JnUYdKJcbYNX5BJjjuZzAM9E6q5gVF6e02ltv1VJq1bjSZjNWCmWzmfGZ0vzK99mi5U670Gqd3Gij0M2D83WrzS2D8430qs877d0M0HNhmpU9imneGNTa4oXmPVbzBqHK23tsxK6xQaj8e4oc0gbmrKoNJf3xZWugrZIQ5pWCbBa6us957WfuoaY1wxWfdzBunJvY+L1s3UNlE2q5a0HaGzLmhTws35za7Z6MOVG1dTKp80rKxyarzifF2rP5G4fWuM9WXW3ubLV1iPQ1B+83NhUhe73Ne4Io3hzU7+OB3WzRcidzDIvNcL1f3Tw4b3NjgC1hgJ4fbNeiV1vxRJ6xejfJHD/FG4Qq3NhnYO54v7MKl9fqENEOPRMHfjNQFhgkZDc69xRjKWn/uNT8lUEnmuyGmNkgS4uPYSLukf9cchuuJU8qpCZXgZ9rf2v8ZqBSKEMJMLux3E5v3GbV+QSZ0L3XeSvcWKNgTnUrxK2F5tKiJWDmNxDbuYisWoq6rVo+ln08GJrfLX5d1ul1vnlwvt6ScJHlir1JY4CefdyISa8gqECt8tZ7zmWVjZrQyths9y8N7O2JPFlxwapUJzimojL5yJvcyDFpxh3vh/4s75PXt/ucV31v84pvQ0RrKB2dyLn+9d9wnzrKV42Z43jo++zHvRVcsj4eBgfwO4fSHLdZdT4pBsdyV3XeXzCnvdrc2q1N8EqLFk4aDsDWfaaXVSUXnPsNQb+scHXBetzrsk6v842D88OXq9jw4a/EE2xY/QE6NxHNGBvi238QgvSxeABaBVZztdp4lY3ewMEE9yLTgtsTeZ2ibQi6HjudetU5W7SMiwuVS/lv2XK7z7lx5zUriddld03kXP+X7mPbtiZ0M+56xpUJo+KS9XEyLnxMr2ULq84nadr3B86T/oI5E0xoldOotvC8JZMCDFEHs2yz26ZFxKG/cfeavL9cn/EraNaoOt84ODebPIxH5j7QaOTAlU1E370gN2vcSDQrTIntWjQyWmfJC7oxaE99f9O/BhrZzFdyhjhyxfoPVqX2Sbnq3LdoofGY8MaQ6djtz+loKeJ5vZngjzBu8uDUCuQapv06XsF3ni7uHhdbstKihcYj7XZCrDqfGHM8X1XnNsTeQ9Z/AMpX9QRbWN3M4psBNbbcRz5dxh/LrXYE8P5yQwZ/tFbV+frBebzZXoiN2M5u0Na9M9tYVYXOmXG9ArZrUUrnDU2RNwZdoXVVjeGKqVxKseqcLVrGTzaGPKR4M2iaoDX2ehiHrxqJ3rTvVSJtfl5iy5YhsUXLhLhA9a5+0RPCqvPJyl+v82xotUdb3ay9BY0qtg4qimm023fdT60fnLdRxWZMFIKS06tCvz67jyG6Wnwo0ab6H/S+JwafovDsB1DJhS7cpyOnUqg6j48lPjCOn3EPeVxiSsKgZI5g3Ja2W/efUnodW0XOjdf9Jm+0udstWpS3YMiFtFsDsOp8UvLY6zwLRq6EZrX5YKy0WmZ3iOKIr1l3tGtZOziXB85BNhqzgd6+wlnHEF2r6dSqJmgdgeIbNFacO01oFZV5DcslNynS2VnFJLVR8/9dGj9pYcKqcxLWHBj/JNlvuGtFq4FMMLtRar3N4GoQH7uJF9+Tma/VZFRYdV4I06w6n7gGRsFq88FFyHZvcxpF5c52LWsH550dg/VxNobVt5PQH6JPfb7LvWsHfU90biyajo7lca9JR/M4VN5Cz7mcsIqDc9veBcqrybXVkmrzICsbK5kFd07W3cF/yt1DPOM/ELiH3Ohl9/MNZAOrzqnLTVa1d4z3HqBRA3Z8telC+iYywYXnrTbD8434avPlMEMb4i34NgEWbtw2z/iPCMdhIwlzGsgGVp0XhQHbmk6StSOubma1+cBs5yKoeJY7qzLx8tpfNeiNhCx1f2um0JvfTVrjomxSdLH7AT97H0UHYIKHwTYikxFv2HUGpIORKk8DlQI7Ws+5PClFc4hKUMmwH3Vu9aqSZ/c3MG5SbR5AN+PC8o6bcJ99vLHh10n1rhRPxJvDh9Bqku8vaWbcdVZCmgbGSbq1LNtL7ntZaeuxpxueP4JGfQF0h161udJ7xxUuLDfmnN8Laz2ylLwxN43lew74IEx3BWlcdb7Rv2dcpOq8Um2486KBNDbG8xNvsgo1+gg2mHfv06du7Gr6X2u3mygF0+5ZPp7s6uABmGi3+/EDqfxdt24mtfe5iEYpemC1+RDcOCxFrFQ07gYhkuC83vuJu4NzqZyKhhikO5F8LYPztMQXpYb//rf/IEQQVFxa92Q33GW1yTgY8zBID2se0Pvs80UThRfofWg35j5QfgVWbngaGCd/z6S6atFNXNkTAwfM9YNyvtb9x+E/Ow5TOqm0BU2v6rwBKriSnH8nME5LHesmxy65gCJL/bDj8Pzb1afwXr0Jivlq82aIkuZx295w49sLeOdCY9MvjXuwxuP2/qfr+LU93q0k1Tlux1XnDaQjrjq3Yw+j5f2Yc/8t2VS4gfLnc93Ct0E1/OfepEjnqxUXph91f95gHQE0iDD++y+KlczwOZwJuLfDoJYt27RszA7wNdpnqddmzHf9JuIy8Yq1/hGHL8sM1FkMSma5Xn18H0gfX43ubg4MJOitgJIjfec5+6jD4StXuxNFypgFnH+MrUDEkSuDXFQnb9Trl9Z/z8h8+44GTOcjN58+D9uJl336inwXmsp+JirPsc24f1fw5e5uGDwehy7X9bZpiV7G+Se21ms0nhi4Cp3V59ZNCjySSNV59bJx/84IudV/jpvV54M/v30LuhDZ5EJtez/q+5sYp72H3TOT/UdkrijFzqMz9QjD867KcwatL86qbdNicAbvzI4+EeQnBn6+G0HpbaUVpRJeP5JaNXKlavyEUvLPxW6Mjc4hCC6OEJRvLn5f3YRPqZaRFkMLuD47+jPQ3kM5u88eo2EzCcmHLK6CBtHwrZK3Kn/Hs/x7pIXYRXfvPIcg+kt0ooWV4/D2SqgQviNG8Pt9Rb1ZCtFXXa/WaNUy5GAsfc5lae84H0xpNHdWo0+VZ9xD5gF3CDzM5TlbFGyT5XNNUPr0tttognqa0BjKFLpVi4RnLliN3DVis/YdQgLUjkzEKm/hsYqd7u7ZUsc4qK42t6dcaF7DVkkYWb38iPt3StAQQpfJtOnIKh+U22tYdsf/jx9vbvi1NfcM3VyU41kmWuQ1DZElHSPn+Xhb6H11G/DZ0jl31GWsUq+7Yei3qwzPtVebG5xyz241bIX05K/U5l3I+ojS8NxNUiLNcTvJqvN4QjLAy2OfCJD3Ve6lK89XsbxwDSZ4Cbon8abZrmUiFoYu5LO2mtUCYMi4YaMPgNIcSlbOv9X54+o2R1IQsMVzxNZB/SQwb/gxdKMJwtsroeb8R6VW9xN/vjOG+aG7Lu1GNphuJ5aG/GB1cC4BeDTshWRlY54GSK94UJWPi/7HD31/BjZ42F3s5WGjAhqO7WTlhC+CEBpZy8nE25S+FqaA7ay6gXlw68xQE95xNWfdfxy5XMvOpkI+IKljHNT2NpfQfH8NSQl3zLtQVWl4Xjrq7l1PsXhjlRuI7AtDVeLXfEFV0wXox917fcY9C1Szc47LBAp+C+OWzXYtXRKet9/H7xx6Fn81exGFpbi3eRKheY/28NzgKCrVU6n030+m17m0YbnkgqMziVeWb6bxI3lvz7r3tqF4VUGsL3CisRmuTYtsGt1qZ23z1gV3vr084PnWWPWjLeVdtonrF86BuqzszfCMu05dw7BWJv58gN7I0MoZuV59t/fd1Y987e0VjPQHclfezHn3tTn8p9mX/fITWeJjo2fcCSGDAx8+BxHgAVD6ZLJPq4AV57fZD6CSbHCt+BhKXhNBtMeHqlsJGuX3B3Y3srCqorcqLmlSbR4E+h4+jLmYaGguJFQNf3Me7eCpu9p8pE5WFeysgoR1/zuB848/OHL7GnmvZZJsx9driCKF7/c67AQKQCRwK5cbyG4QtMsFWa/joUPFfGbz1ebLoTum9Y3bFm8kFpr3SFDxm/9i3v3h7jxW92w3jaVWFemJq86HJ5WW+9yz8x7/fk06NF/5W9SAHe69jTqPQPNze9wqlsbJYrjnq+VlCZCz8tyz4CcUpz7fPfL5dmfeJX+e7W7Ku7kaSFh/jZr64sGRQvN+MnZJMe/UVNW/F9kw4+8fcGdwDjPaphPjejClyZAD+N3X6m5Wrer7kclNgYTogw8sBWRmQApsC6GVtR+BMmBHUa5dcwhu7UmsD7D8OYGVMtUmVFtp15IsaVujb9PMJkw0nk0Sa/8K+G/bN2A7o4QN4ySlo78PmncTOQ/i1ceTaVfyJ/8z8M+++Qba5pGMhOfhRJ5Ddrakr/6fIruM+1/Nheev49vVEIXyiXvqXa5AXWhkXQDafgHj8JMacK+54f4b+sbtwKQ3bg8/CdYLzPepaT3iw/Md8+7v9RT0mvEVzjQ+w2Y1JshGla9Ue3fayU5QSd4lf967F7oFo5uc/53O1kLifLA+4H539qlEJwrjMbiWkfB82reZwZ3BeWBGnBl0D4/RjuOgfJCbAgnR44Fljztl5KAebilQ/oUgBQK9N2Q2I5V6k9GEVu1CnMsSmu9LvJ3FSniu/Fgf+d5mAypX2pnaWDdI/N+eAEo7z/ierprIhkPFLt5wobl9BPVHk71Pk8mS6Sk3WRKNJ9RLWvTV8Vc3/utvAdvLdWR9dabBwW7f8xCF8anxvVV1kX6xp4buUTyMyxeAqSmZUGtAl0rKoeogVef6AvN+Ej59ZXvDt7HQaRrtNgvN1ifXkYbvox3huHtufMYlcwf9MScf8mP/IVXSvtXu3df4khn8uh+P9xWoZ+cw9cWesY6LvmB0Nn6d1xwb3Xsyzv9+NthuC7HxhNvx+HVK8fh1WzBVkW9u9zj3m1xtJUAIpOdfDZQvssQlHqhrfoNRU34Sxh7n5qLuZkBeDw6q6Wq7SbtA6QYnpjQPilmphIVOQfle5JuE2wfH1gNagtpDf+Zu9oM3oJX1q+meQVKq/2Fma/dLY2BQx7nHJtGL0cLaF909QAWaxO1akqm2zhRzE0H0yNgmTH7knil/cKWOlm9Pp7u39yT2npENryrVm+4seNmdcxlveeL7nn+Ihw5JNVlWlkyP5ns14B9+MQMThFDF1ifUQzfJDTGTE7drSWfc3rjXeaMbGDWg3Xd+001lz59CqyOVxPomkDuW++D1s0buyeWcb4x8fMmmq1F0wI1nD6NcHjw49ytuVG7M08eH5vsm1gYpfg8a8Wtqz67kW51Ovq+Jg2mMLTTvefPfW+x99gSwLIUPWifZXILhx7G+s6ez1YupC7COvJmR5R80EgmJpU9UrxK96O1cOoqrnYvCKN7cMWp/CtLPtnchzyL7zFirkMXsExe7e2Qo5e5PDl2uICntQN8KO2Mnc5Nfd0FqeUdDWdV5Udu1SLXqibGf37/5mEWweEr5ypLJbBAqKiGwrSQVUnlYVVaM1i2/+tj9O422iR/rwpnJtFDR2Z8/3XYtsTuqzu0N1RXma5HJPJlAtUqrNrknWE+8euHdV+N+3Vs5vuT3vvvacd9rf6gNdhXuy7OKtGfpHExl7wD/mvZauLDa3LcQ67SfxSR84zPrXvfJ/LdGZu+Tz7eD80RmoW0NVAxSid5r59LriV40UyUuP0ubUdxmo1xiq5aekuY+2IonX7ZKqpBH3SRwWMHicdXBWpBgpd04Wr9szaWxh6erxVXnmhSyXUv0Ms5PYJVBTeYl7r3p/3ua2QntPaM9qBpFr3XL3qdzWgD1hYxausZtay9NOJwZdUPMcUq3XYtMKESmEbfBsCfcc+2DmQnM+/nJvLLS8SiooNBsU81kjFHepqXT2Zd6YB3v+ZfcCtVskqKM2sTei5/8BPjazjnVLVtM4CcAbwfngUliRjDE4Sv6KrFovHo90WW3YpmpK0oVuo1YcU4b6DA4XxHpfS2Mug0ekzOpKmThW8EoDtZsQmF31Veuh9AkspNd6i5V50aqF5VNlIxjE1i95t19++TOt7DinhOWXlZedR5iUvJVdd5ldruPugvPX8rVhn6VKtA2FWUtJu1Ez18hIbF1IbG2Y3a5k+64/e6rFu/OHnTPsdlt9eUn83r9srWxIYpKgsDrF3armIyRViQaW/n0mDHv9UDDkFzvPCZJWk6Vy/LMqvSeyo1jlVo3OI+rdJKp1JANs4q9SVNxyYAnM3VFqUJnn3cNQmg12QpQ5QLFwbm5D3kk1eaTPgaDxTNqgzVjZhK5N2mjCl2aE1tV0K9UtsomSmTZ/3dRDO61N6cmen5nourcTYJO6vkjj1XnK8wJtFrvd4OWHNhmYK2ySnrbTCVMmypZZcesgYmKMm6P186WdZPofwqNZE+wYllA0DnoznE9xaQRFBcWuPGw/Hl2J67yxU6sRUs/uadaKi24/7re7HDx52G34nxHgssb3Y1r556Mb5hDW9ZfhZ7XAN3YvG8qSERZNclq8x7VVefu3qSdwL2OujYt0SWkIYSsWdR1bY83gS2C5kRatNxppepcs6+EmBSp4N3mxtlcrrI0u90D7FXsffp09nufa2zTYtIZt2XgjtrKnskKM26P161vyQbJF6FRsK1Afc7d9cBG+/BX/7uu98IoGwNXq6XS15zW0kit8n97x7rnCp1jmHDjWBycdxLuC2js8UQ34qLskpOvF6DLMpxcPWCYEJQuq7VaWPVy9snTXH1vkcfNQS+l9poHkd6bHrPFex2NbVqCch1pqPlNQpuApv0LpOL4coh8i6vN0yBV5zt2Lrh7Ob3neDTpe4IpabmhfFOrrTDHfe/zrFafa23T0orSCa8bNXcOf9UFe6YJPaYLWJGcPHlvS1NNaGx1YDu7UQwLvk+37AOnSdx6K9msLzFWcqLi7ZOnk4UN0qv8jzexvgaVLaeE3dXrcZ78LFRgzrJlC62QAF12kY7cBSU/ATqPb1qHZXCeFRY5XDli3kBa6v/LnHtNG9BoqxsjReo2Vmqi/mh6D2h2ST6nVDm5jk7uqxfTqTbvWdxm0bF/DK0mHdCs2lwwr1aqz7PZ+zzSVmnpnn/+OsVgbbvs+2Z1jdumxKrzJEyV5LOu0FYUpbWpbLKssU93p12BXjWQEu7a9O75tNs9STuxa9DHSJ/zXnA+jhuhkC1b6C79AXrmW7gYBudEpE/wZdoPxboeyldssc2KVdamxaQ8QdHZLj1VNb3XBgF+C3mW9nuudWPYmElls+dH/6nFtpJUned8wrzb+zxbrVuMwhYFDaRpSd1y+PyP2xOzTTYL/wjaFKG1qRQFatgEdC0ddUUft3U6GkPSomogbV//Aqm1oNzcvXFwbhJu1dIjLVuOvKlsQxZSob+FS943EZ0UaSNw+MpZHLky7z5s9+OG/7lqTlsnGaWbg1pN7QvUaEIjrcfQqKTa2/caT1HpVh0qbaGVh6ygM8oePmwp3fBDel6Xl3RVt1nFD4hbZ2GC9Ku9t3Wg9r7NmG9i0vxGoV+5CRu9gNwzu1Fqf4iHDukvjPLviy8Mq0AP68btdEOBSijL4ZVVJQcVUAKW3TVCVRueWD5bIt4mK46kKFArA5095q29pLJCv5isGz7Sv7/8yU9kBZJcn/QVIrgJwCBupzLWCo0z+P5bSvsqUep6AXqAg9lr35JCZdNaqu78OnzlKiJz1V0cq1jdg3fG/5z82pE3bxSg/ytR0aU/Uy/BvdZ2LVF5tAeI9vYKtAnaHyBN0vM6uEdubjWFMGGO2wSm25qnR99Kg/Q1fuQmFL5ad98rQiGIVHHXXHj+uurq859+rLNFQbSc8rhdkxZDysZtG2ayDZA697gPo7DiXOt+VElw2UXUPgHddOZwBum1laQ7pNxCrN9UGzrvMY20atkx5pPJhYvl6A0GdrShv5q9iHcvxBuIZkf6N3myoiOyVwerhLQziIIbnMgiyrFS0IAGxupcfjlqD+QgqECXpopNd00kn5W9118JkUdpt2np0dyuJUpxBVHlGxZT5RM52cNnc9LPVzYOfej7Ou8pWx2DjsL+5loqLLX1kf1iOQTlVK5bm76sumo6Hp91vv5TU5yA16MBLW4FshGHvr0anADtiVTNhojMG9wslDYlS52kfUtRHjy2wk9G2fpwle8ykeWCdk5kEeWQC7I0VKSKSGnFeTDiklWrbqlrulWLPdu3W3e91vF36el08jg5nH6Lh1UiWWbdgDYmxYBGKnm/Ht50L8xTKAyzGyZ4X2XrlqWOvhYFVsm47Rld4/ZUiUU9W/XVNlCyOd9rQRMrq+bPQLNSEEKnRnflC6VPguoGtPjmsntW01h8JRXnZmIn1AyinVdBtBmZuc1e9fnkSfuVkbjwvGPOIh9CaBSwx/kalN4g5agSxlo9M/TlRZXVAiP3wNbW3xxK3uvf+Lp7MIs0vdeyQaTOfp5blXZrnn7T98qD1l9CnZRb6P2kBtxrbri/RwH6na+IW7fsffol6FOBKprC6o6ucRs5Hbcn6fNlucdReK+tpLVp8mrQTuvGoGz3psuy/Rto8S//paxGaEKhYMIbo834jQqJBiHV55nsfT4Bhy9XsZXQWEKgQzndMJR0UnkzL3J0Q6+pPUq8QanG8DzEsFRurly+ARXcDS5aTaiitsJqK3S05un57JauiTpNLl+Qh77TxSv+MCew99D7KvqeV6pAW11/czfZFCgZt51t25pQxYagvMphcO6rzfXvaaF1Y9CS4f2DHgtq+psLv7F3ewFW30bHwcRDA9mokOE5DUp6n0edfVDa6yg95ii2qpTAn0FEimgJU1fo7HM+bKuqjtG3hDywOjYAkw1Cy/fKJEkTeuSxclFXW4Ww4t73JYX3ZUpWEDXq7vW5R4LzImwW2m+P73uedni+s+XGbatv3G61FW3cWNYVTJiAFeeUJQ1kg8YWSAt4Z7YB0kLfvdyyi6i1rKxdYcPAXTQnv9OxD8/fZM9zGoy0brk+u4etW/qYBIIcq3T5FhGNRkuY2qO1IjUqD/eAbhUGMFp62Ys25HrShB4hckdZH3mdEyZQtYKo8ScWU/c8g8KF52Z36puG3vqKGXk/i3HSVNUnA7fRtKKXFeeUIcboH9crVbkeaszaWAypiaq9N7q2teXZ61MoEyAtxh7wPc+5SSENSlq3wJ6AHum0nvATTok8HIYgovzQFKYKXb2vb7Od3UN9fWCUBTDKlrhug9zT6Zq0yde9pVW4mqT7BKFxAydFKt9w4XlZ7lsLFhR0Nw3d+3Q6KxtbMpunbdzWdgxskz7Dusbtb/9BCCL13IRTFiqm222N1eY6g9risjpbIm+3bnKqCWUm3eP8TjN+g0OG5zQo2b3aRnt0nOQmpZ7NO7hSg4juoLFf4HITGpkoxHB0PXxYq2u/gGUJdpVVHrdzNjEctdVV3qCzhPTugzJCenVWwpsuPH/EnSUXUSzG/f8svvP0cUzaVCSftYVGys6VZX3BRLkcgki/BrLAaO0tH1wF6VHStGl1zz3uw+ia2EWaFee3hT48//5bOmfFSJ93X5vzfc+5aSgRUUxbmCriDUKbUGeIzSOr/0HfvYmJdN3kyv2tha4bXJOz4Ly8qG9ibPt2qVRi5dhmJDxv1G9i2z1PoXg9zw0C8xIeOnQSk/K9msuEl/WN2+qqLBUGE5EJQaRfA1nQUdnfXNleD4R2uwltvtp2gb6+59pAyUY6IcrRDRy+MvmqBMom6Xue+qahDO6JSIlAY0ANCQs0biA4+N4ubRNCHVb5bk7JJpFJiSehdGl/zX1SOGGnle95Xq4WcL8e4/53cmLh+a2P3QP3EJOjk6Nv1Yg2NuKKWtJvOSMTxlbpvgGq9nogn6lps/Omm/iJmlAmULWRjsFpHHlzclUJlG1yok+V9xVw+SsR0WpWWa/SHqOsEjkWDvyVRmEAo2sjTuBL91FS9XdyQV00+Y3vx6cJjb6xQyqCmqDBNerSjqJW2PB8Ej3PO1+4SR11gZF1L0ETqnwpG4o3oYc7Rkyexm3Kp4XMBL+ByvOJobkq+vqIe7/6l0AUaaw418bWcOTKDfY9p4E06gt4d/YgUln+mtYNZ1IVGaxaJMoNbWFqj8q/1xAFAxpbfmh7TUP/uQlNTHAv8kLruY1fuY+A9xHDkvD8a+5ZB/YFFEvc83zc4Xm0Q2cAqyukhh+4tS3RNzY/4zblVZaCX30rOLQW+RQWix+GoTA49+JNQw/92QEQDeL6bBWTDs+tSWnZZZDQhZBLrIlyQ224pnScGXRy3uIBUPZY7EJeGLZ4yJ3LF4BvfOs0bPRgwfbrkfD8NB76/vh67y515L/CcTuL8jRuUz5Zm6XrscIe50ornItK6/FccR87trPifAghguANtm6hgcXh+eRmgrk5qQKsms8Mtbu75+QYKpd0/jt0tfDoUxrseNR43Ja1vqaKWOSnctHgJjSqyTYzPBZH9pMasO2f30DUeQTFWr6+C8a8jm9XQ4xDyz/a6hu3NW7Apo0xrDgflmw+XKlO49t/EGJxMdR7r50XJhtjtRwTGjE70UXt/WUNGp/Py1DPt26pIrD7UN/fBNFGpOd5q30Vk5hlNaV5ZFoeAkNfzarv5iBS2N4hfUpv5vOy8qKj9d/RhEaRX8o/yAOQwoqdRV3vtQSo1ctNaGJytDmotb8E5VOjJp/n8dgPHsQXS6fdhM8xFILZjVLrbRfuPOhbLiZpKnLhucJxe8cOXeO2HHuVatM9M0GR/Ia+EgQ1mtMu3J5GuRz6n4tMePsL+vryG3u71ZB117JeGG5N/9fIz03jz/8u/nGpG+lEoLHKSMX08rKbRFFYH1vKyMRDUVjD+8shZCA490J3cZnHkTdrOP9Y0TbUoWHIDfi3/+AggtJV9+AcYpyCKJ3lLR1IRcHWWbZqIcoNtRPLEvLuhDq2vfmS8Oob0yofQusHOXZvStHG90SbefPfW+x/+jh+LRONRlbaFuD4deH5cvsV952nkJReOKlR0hMEuZThCc9Kzd3u/Dz0obgPxDszcQW9mfHh95//Xei/TgJu2/09xq7zh5k1v7v+19PEqNurYB1BMA0eLrQxC/AoGUY5rjrNygNGt/ocpeM4/28ugWgt7/24iYe+f9Ad21J5Pr5ju1xOadY0R5V0RJRvEvIeeVPffcZAm37uUFht7hy5ou9Gl1Vu42L17l9AiZK+55XaGRe+XUJQenvsxR8aGBzAd9yEwX+6cAZJaDSlJYrGcdtg7yF947auavPs6IXkwVQlDsiDB9D6uxkXisdhpQ+4+6p9GXjTpMkqBY2HHVtWKWO4WesQggwuUw/dReoiDl85O/DmXlQ87742BxudwPgspFY9YhIKoIJcPIzrHL/y1CYg93LR47wJ1bi6hSaNYzBlkLTPeO/H8/jajvtd8PEy8s8gMC+NdbNQyhClhXy9PuIPHa5i79Nnsfxf5l1IPu+ex8660FzaK1VQiFUilJngt93X+kcTKW4kRYzOHudKad4cdGMGVd++hQE6refd1+pjfPBIsUdXQoGAjbK0M/jarNLgnG0C1hJCI7YsmgR9r7Ex9236NR3uVZBdORqDWXFePNK6pfzfHHf3ac8UYDM14zcLTWQzu3vu6BtNGaNn3Jaqctlw86FDJ/Hnf3cVrfZNH5TDVN23IaiYtO1VsB6dBVx83tImyEEWNEESnGf7II4D9Ks48uZJBuh0l3K5NpaHDmvTG2gsNg98BpKLSlsi0h6sqZ3g2oRhcE5EKWn8CNj2z+uIOvvcIHoOuWZ2o9X6IbbsS/dhE7pHpsLpVZZ/59AxtFxY7qvK4X7SV5QTZWmvAo3BeRNEGRZk9oF2tdD3P2eATneSC1xgnkHSLBpIT0IV5zkIzo1V2puLbQJWkU0WtTLgbPv46RtrokFCcZ7HRJSiuHVLE1P3VvNffW6Ob7lly/aSbKXIcZuGU6kCv32ogj//2zpa7XmXjkjP/QqIssqqXHXHgj3KtEBv8DSSsBugs4UL3fbObCPxli0lk16rlqSqIE1pHjQmbNWy2g7NwTn7u42bsRmdnOB5TAqUS3zYLLrb1eePyI+QTwYmeAlbsVTSGhiRRr3AvNW+Cour7hA8Ck68UB4Ycy+INsPNWocS5LZdw+oe6BVQsUnLliRnOsvlFHucJxScR+0cVNoqHr80V1lPXKT3tchDr/98bPQ7WYP0f7R88CANOgzO6fbGoVPlfe4Z5xTyqYLfOXQAo1q+xcCINndXYM7qchqEaSIrjMYJoNzv10E554LznG+MttID/co8jrx5lFXoBeV7ktmkHjTmUutxlmQYW85D2KZ5/FJcZT1xgeLXgr3+J6AJdQaqSuQ5TES6NOru/u2f1dBp35/D1i0GkR296nxbSWlgRCr0epi3OqcZmBMR0TAC9ZuKJSd0D8p1VqEX2PULZ5J5yLApVpvv2Fr/x371/U1kneo+7SU+vGVBHnr9ExFRcUj1+eP/Yh7bpvYk3oowdSbEd54+7kNOoqT83nPAX/w/B30Pc9jjIMo3fc+g1uSpPTQVUIBSAZd491eh+xD9reTCSFIukarzBtLSTqx3YxO5oLjivN1hcN7TSai90FjkfNUVjc5oPm6JqNAkWJbVj1+TENCegGxbnw8GgfkhGs0R7qHKEs6EIOr5Xg2oHN2Fm7fOICq9Dq4koyKw3NyeBrBjB5+BhxAgNwHaSMI4RI9uxK1c3jrGVi459+5rdWy113mncw1pCUwykzx5WWliFYeeDN36KL6BK86qK1qFDxWUFUt8sKH1Xb4ATH3rDDrtf+ruifKy6fs0Wq0nQbQVleeBv5+/H8vt993N3jEQEdFtabUezqggbtfAperwrVyiM76Vy5ErLki/XGMlek7ZrSxrtU289+Mm0mLNA0iCQQ42BnXKmvt7MphbYSxfiyJT2Q6HxyRlRP0A79FpY9K6Zce/mEfUecTd415E9hn3/6rfxJFoFJXnDNq/3odS5z/DmBBERERbEMTfcKn6HVxgbk6uVKKzJ3q+bCufwehV5w2kK6GwJ80+7UkKFFecM5jrE0KrXGySq11W7zE4+UVEGSHhuRR2bCsfdLGztCXMeuuWh9FuV4b5DWgt8d6LZANQg9YXR90Z8DbYmoWKyNgQ6pgmiDKsF5yn13pCv/B2T/Q3b/oQ/cibVRek70b1qsEfvgfUfgbKkHhZymjBsS2lV8kjx5lJqFULyjeQB5o3ODXmPlDMKn4t8rBJLo0JAxgiyphGHfiarbnx6wVkOzw37m//w6E2CZ0qyWeO20XmQ/PWUXf4nAUREVFC4uDcmpxUn46be4iWEB32rAvSP0Rn6W18+uvjaH68B//OhejPuY/nr7qA8ypIubgaZ3jbgvQmmZofzSQW5ETtfLRq8ZS2mrLYBVKObcqIiChnfN/zqTPuXvcR96ObyK7KaJuEUiE99gOG5kRENBbd4DxqgoZn3A0dotOIovexvPQhbi29gs+Xq2guxtXoVRegVxmiq1Quy2TRsKFZI9VNFDomRFLKizmaLFPb5zyZfvR5kNhKicQ1QURElDdSeV7+Zw102v9TpjcNXWpVQbSZ33sO+Kw9w9CciIjGIQ7Oy6w4T0B4VzV6tFgDFvfh8J8bHH6T1eiajNSuxdaRpsTCR7OA+sH8VNpareGnmeb5jm4rK6UtLyz39yAiopy6vWno72Y0PDcIzO8P1a6FiqdSA/7f5d1A+3UQERGNQRyc+x6vXLKeKF+NLhuMmrdhon90P/P6SjX6s28Z/OCKYTV6yiJ7aaiv73TS3QvAmmQqmG1eNgbtMlZp2xkXFjcXQxSdbzGkVMCKcyIiyrHsh+ds10Ib6/ytQan1OowJQURENAbByvesbYDGRHqj2wMr1ejt6H0sRad9NXqvN/pzPwVqWd7DJ4PMUMd8A+/9uIm0SOWyQTIBpIk+QJ6o3qOhxIc9BHpfA2s/AhERUZ5lPTxnuxZaT+U5g4456R5u9BZpEBFR5gV930+3mrZYZhAEx3w1eq83+vInB9G8tMv3RmdLl8l497Uh+pyn3KYlrlwOkYipnB1citttdDq8ke8kddyOQ/kGaAIMJ5CIiNKU3fDcxKt4ie4gLVoWl6VV6kkQERGNUX/FOfucpyPujR4FryPa8Y++N3r/BqMM0cdtsON+amq4ti5Ja9vkAtggZ1W2pUjv2GU0h8YTovk1iNpK2/zkjFHa456IqEj6w3PgJrLCmO/ie98D0SrtXxgE7dMoDjvgBxERJay88r3Z/Q0ceXNB7SZuReGrKmwFkXHfLDXwuTmHL6NrLkRv4h53MfwN9zW1faCEWHyweSWLrXc3E01PEFSQCNkY9NGcTZItN4GdUMmY+1B00pvfQKfyIieMC2uQfV0M74mIKF8kPK9U59FuP+Xugd8G1F6h+02jOSUFJBtfs1sd+bzgv57yrfK8u/1fqLqj90nkQ3/gveDuneX+Yw6mu6rWml/6r7Hu14yJiz5K7tfkxzZaQCeKv26qvAcRuEkqEVHCyqt+JFXnXA6nx3oh+nMuRF92l8o6A/Qts7bpbkA2/hrjXvc0Se/7//JmMuFjHleW1A8uqJ30sxxP9VacyyTSQW6KXViDtHiyDGCIKH8adWD/0w38Gi+4a2E2KnbLpoLNgvOp7S5MXVrgKqcCWPrSuOezHyLbJCyX8LvhP0r4G5Q/n0Pj4mj3ppUq3ITYbhBpnEC0EcdlyrTyHT+WdhQVkD79IfqtpbqbZT6Pf3e1gW2sQt+Ssmm6mfkN2Hm8c6GBNDUvTcPsqCAJedsYdIWbAEFCm6cmK0TtZ+78/FcoJPm3f/hfdfZ5z9MkksUuEBERDeryBeChwy+7C8jD7hnjAHQzCPAAiMRKtXkQInu6YXl0DkFwEe/Mco85Sp6sWNA2gWi43xFlW7DqRyV7EaSf74ne3Vi01w/9uauGvdBH0Imam3zFKaRue4LBY942Bu2xeicEmh8Xd4PQ5kd6/+0G+elvbnEvdAtBRES6PPpPLbaVn/WrL9ULHkattsnX3AIVwbJxofkRZIsE5jfdvecpTH1+P9597QRDcyKi7FgdnNf3N93nJigrQncdPutC9A9xa+kVBugjiKINlsO5B4nrF9Jt0yIik1wlUNDOZ8W5NXqrhzud4gbnbRNCLW6IXWh2gHsdq/Z+yPJjoA8i2kgcRN9EYJ6BejZEo7lJxeKUbEbdhE5ZGjvT/NhYpQYstkNka4W8XQnM35k9NXIrFiIiSk15jZ+Tdi3HQNkSV6FXfRuXpn3R90H/hrtQs4XLxt77cRN7D633qw2kTSZBPlx6GMlodifH8sdGTZgAKhlb3OA8sU1tx6F8A3mhto98lzX3ZmL7uaw4/7jSwY6IMkf6nVeq19BqN6A9jFxclOA8i6GjxfVZjtuJ+Nig1KplY09bYefdx1N45zUWa9DkGKtvnDT2PhBl2N0X8YjtWjItDtBZgZ6ETif9Ni3NxRBJ9e42CiYCxqWsuOLcBg/4DV6LyCruSRrYj0CTks2+hkbpMcJrOhElKrTotJ+FdsFUZeMv2CbPsTrHbamUpgR8KfeW34V+cuN/FVNfPIjrDM1p4riqgShhdwfns/sb7mmRJ1vW3RmgP88H7Q2scbzbuq9GT1snweofaxrIK19Jr3TcMmbGb/BaNLIxqPzbVXLHSv3RHD3IcMOdoQUZbksXT6gSESWjUQN2mKa7UUy/PeFGbLTJte4zqLX48xC0NZUq0HbPRcaE0E1C83O4PvsI27JQKqzC4NxiF4gybJ1lY8pvnGhwvY1EZRNRVp+vza4RuGqoNvfMk0hKEOV7ExqrtWe1nUZ7u9IAeYz8xqDKdnTvUXusjMq9zppXNWhsJWOjQTaHbYKIqAi+3rbu2vgy9DIuMN1kqf92676mCcqpbcYdo1WoZ+cx9fkJEKXF2kHucSfLmHtBlGFrB+ds15I3IWQT0V71uVSC0gaUVJtXr8pFpoJk5Le/eY+B3o1P1VZej1En0PtvNlH+NslVvapBY0X8ACtULFffEVFB/OQnLpfcJpPKDWhl7MbBy62WBEYct3NrOQNtWlxo3un8LivNKVVG4/2rCUGUYWsH575dC9iPK2961ee/+HgP/vA9UJe5oypWTbX5YiWxit089zfv0V1FnNzKgaywmjcZm8rh0pvtOoNzv8pJ4cqDgUJxpQFMW/lmsESUUfdYNzYqXnVswg1/eafL1U2gc9wul0PQ6KRH/KK79ulu0yJL/2oqiq+o6DhxQ5SwDXb4tpdAeRSiHL2PhYUTvqKZRF+oo6TaXLTdREdSbCn/q0hKmqukzEyhzjcJSwPzMLTK5cagJZ3Budp+3AOE4iWlrVqCMpe7ElHyKr8BbCvJ85/S0MWEG//6l3qv71HAcXtLPnHv7XIFqtkmrl84D6LUaWxZZUNukkxZtn5wHiyeAeWXwUuIlmuFD89rtdU/1lJtXk04eAw+z3d/c6F5g1Df51xWEBREHJaGUClvG4N2RZv1fk1NCI3sQKH4IF8zebbNDZaIKHnxPbHcR2X0GhkC7XYTKlmO21vSlh73egsyetXmRLQ+bpJMGbZ+cF4/uODCVfY6zzV7svDheaN5u0rT4JSe5XU+ZA2RBIuGP5+LwNoGtArsARRFR3GbltxtDNqlNUxtK90gtlzafEzUui+Exs1WiSgfbrUsIq2rjje5njRqwI4dTehjfLUlja7Vdp/MA1CL1eakSOCOR406geL9mIg2Fmz4qx3Vu6tTIrrh+XM/RSG1lsP4O3Ye7XYdWiTZpsWYOopDcWV98GTc77kIjOae7vlsQ6Y1TDVBCJW+aA74hYN+3eQYtasLiCjrdk4BJaN1A+0BQhfZIFRhmwJjvwkanZHgHFo3nXeTTWBmQnpoXXkzVeb9K2XWxsG5bBJqC7CpYOG58PzLTw4WJ9TrY1ZmPvVUm8skRqJtWqL8t2np0V1NHOrt95wgOX4N9FbX57XiXGuYqjXQH3wVjr7VOhZc8k9EYxIqbncygNZ2Cak5bufJ92pA1NYamsdsR0FRxj3Sti8E0Y4dOlea285uEGVUsPmXWMW7q1NigtIrLtQr3mBmzLSvNr9+Qc9x/uUnEjqGSISZU9tuYBzKi3N6+5w7UYIrCbSKj1+l3LEhE8J5pPWh3EJhoG+GmDyxGisvH0DNgogocdLupDTVhNoNQjcxdcvdaykct03wwF37KtFgbn3sjkmtq9e8OT2tPomcRl3Gb31juDEhiDJq8+D81f111UEUJcROo2NeKVzLlo6dgbVPQQup+jfBUSTFFmziS6pIVVcUB0/mek8BH+YZVpunQ2fvT40V53aIakRrNB4zIZoX2SeSiMZjKpKxL5vPfrcCuRFROG7bcNW+SjS4zheyX0oIraySNpE7P3V/l4jHGPU0oQ73eqDsGqDiXETs21UEBhXfsqVQoot49zU9N9jSyiPJNhclW8QNfhX3sHYTNW2/8Ws+NS9NIwjY3zwdobp2W7WfyWd9y6uDIR4mbDT4107UV0IQEY3FlLQ7aSKLvv4VoKywx7n4orevEg0l2mEUV6q6iZqgAQ1uTXVXUhNB78oboowaLDgPFs+w6rwgguAlPF+gXueaQnPRcZMXiSlYm5aeUqcBzQJ7ILdtFjrbD/jVK1qVlDzcjIu2HvrNj3T2JLX2o4G/tqyy4tydax3d/V6JiNLw+TeAVlvn5qZTJY7bo/hsWT7r3Vy11R78nmKsthl3f8PNFylmNGZ3NvR7FhBl0GDBud9Ei1XnBRHi8+XkWoXQ4KSFhzEnkZSitWnpqf8vuvuco3TUV2bnja92NprHjibqj+a5VUvCE28J6JgQKpVvDPylfvJR4XhiLAMYIiqYASrJ9fZoN37VIQ1vW0lePb33zX+tpQjLTTAESjeKpxQoLfxo/oLjIGXSgK1awKrzIrG2mus+zGr5Fh4hklLMNi1dmicNZD+BHVXkTdxmqAKtDBrIO239xI3ReXMctT8d6utV9sYvPcwNQomI1jBVks/6xm2D73KD0BG0fFyhNDhX1BZI9etEE2c6OoNzrryhjBo8OGfVeXFI+JXnPswaSbVuG1UkxbqQsIhtWnoi5ZMGBsdyNTkVH781aNYpwgoMZUG1NTp7GZYXh3uYMFC47N/OcINQIhoLtQHcgBs7L5XkPlhju5YZbhA6gqlA7ieUvm6K9gIwbfnMUJJiU9uaUIkrbyibBg/Oxfn9Nfd5HpR/0oeZJkeqdYME21wYU0eR+WBM9QqZMFeTU0kfv4lzx8Ls/gby7wE1G4TK38NofICTvR8ODjc2qKw4d6KvPgwiosS15FMIfQYbu7dvt2rbFCxHHLeH1VqS9mQ6g3Nrh1vBNi7SNzpqM5Ck2xp1GS8VthqUZ5UaiLJmuOBcRPZZUAEET3IZ+ISMo1o3iK6hyCQY0xp29Ug/++d+iszLQrW5KUzbolDNBqHx3yOENtYO/xBR0trmp7UPRERJM0Y+6wsqBw4pf8M9r7Y03ge7FzbiuD2suPWOzuDc4CY0uPWxu1cJQhCtpvFZmCtvKJOGD86las8WoFcshVwGPiFxtW5yFSgG9UK3aVmhvDWHtET68pODmZ+gUl9t7thScfr9a9kgVNtGpT0mGn75vtYNQmWjYe5HQkRJkspVq7RyddCQUu8GofJvOIJKFUSJanWM2vsuSo/OllXTaHN1BGXP8MG5sPYUKP+4DHwy4hudEEkpRC/nAZQWL6rf0DgIXkLzUnYnqLJQbe6ifZz/N5dQFEZJ70Cr9QFuasSkOVJ4DNlp7kdCNCaV51FIv/pExm+NoYaFNR8N/NVTbVklrfHaL6FRBZQP1vwSGnwu3YnwWyBaRWnLqghsCUyZM1pwHveKPQPKufYe0Hg9fzVu2ZGc+YL0ct5cvKGx9sA0RLT9uJq+1MNqLu5WX21uirZCStpspXw8SRV0kqtokhTYwYOXflbpw4cJjrGtGlHCJDRvfXoUlf/VoFJDsbSNuy+tQCXTHPhLbwUyMGoct40Ljf6IPX4pMXIslSMpwqmAqF/UakAj9jmnDBotOPe/85ZUnXOj0Dwz5j7QeH22WEWifYANV4P0i1CHei74kgA6ayQcjczb0K54KzAU9Dn3VdAh1DELqD86WpBSUtonX1o+ZXnVCpFKXxp3ctXRCl7BYnM3/vXTKI4vpbb7u9BomInPnd9y/46OzuIJGbfZ4zcv7kXaGp+4ib5lVvDS3d77cRMaW1aBYyBlz+jBuVRzRtELoPyKNAYfOZJ4tbkLhYq+KeidfPW98nYt0m6hY17JVK9iqWiOlmtQGY6uUswVGBGqSFM75f/+erayYXC8b0QT6rjxw69aYdU5UfJMFaXW2+5p6TgqT5vc96aWf1/bBRrGhNBoKRr8fk76nO8oNWGHqFKfnF1Ybh9nxWUOGJt+cN5aNH61IdHadK6YlDGQKENGD87F7BMX3Q3JG6B8MgzOxyrpanNjL3JT0LVEL0M7qT6SIDoL4bmE5r5C3ibZYmhMCroCw5qHUzuWNLdpGWVj0NWUtn6SVSusOicaDyMbYJ9GCx/63tT5bt9i3ARjFVr99WvDBUBLO9wnlX3O5ZX+I1ZcDqjVkc/Ki2BSImNRJwrd8cTgnNamc68HGQMf5kbJlCVbC85F6ctn3ZE/2C7nRBRLvre5BOds07KWYDEj+zG4ILq9uE99v3MJzbPQokUUdQWGTMSktmmk1jYtkNZCW2u3Eilt17JSdZ7RvRKIMsGEsLi60r4lbwG6/FsWZew2R6DT8FWT2zvWPekqHbe7VeeF66E/gqntUhCgNDg3IVL1ibvXXa6AaD0lpXv0SLsWbpRMGbL14Ny3bOk8C8qjEDQeifc2xyVWm69DxiibkQ0ig+B1H0xrDcB+cMWgE7yELIwNBvVCnxPGHJ14+w45bjvmGLQqL27t4UF16yc3EZvFvRKIMkfat7Q/vB2gV5GP8LNpUGrVoJUdYWPnRl0CV5lA1zluG/zQHUMhaBO3oJcJkaYlvx/DD0G0nndmG9A6Blp7lJOHlBVbD86FtGwBMlLVSZSy6hiqzSPL828jNivV+FI5at5WGZ5LaN42L8HYbGxAZAL9LXrGyZgDE2/fIZuSGig9Psycn0TbMsWbzcpeCX/4HgpBJoXkWvrcT0GUDh+gv4/l9snMB+jfq0m1+W7F1eZ25AKIaJv8bq3jtpusaJ8tzOaz0tNdzpPfew7DmZJVtU2oZEN873tIReV597osV9XuSUCaKK06d9fRLE0eyhg29PhFeZFMcO7/pFsSTM2DiNYXb6oooXmI5BRzA8RhyOuTlapzOTY0hecSUD13NQ7Nrc3GRi7yXtcf1bo0cUJk09mdJ1H7GSZCjtU2alCrk0zbHrXtWhC36FlYOJGpjYZHIf++5qVd/lq6eJN9XSlN0+68q/kNRFcC9Iy1cJEg4FfNXQhafwHNSma0PSp0t2sRD8ebz1aRa/Lva8zv8ufJPy4ON24vd+S+Tm+P8+bUDNLAanMalNY+56LUOpmJ8W//0/EY9umX2Sggo8QlF5xLJVc7eApyaSOitUlFJpLeeKmgGyAOTXGl6N1uh+fPpxiC1boB1dLSK5kJzYUxdZBUaB3HLz7eg0mQYzUwR6HVVvub96hu1wIJz1/KxF4Jo5DA/Jn/aBC1jiPa+aHfF8K2d4EodSaMA/T+Fi4SoFeh3n/80Lgw86z6qtVyebTJcO3tWmTUDsxL8cazNeSOnAO/87TBUvs4Wp0P3b/2pHtDhhu3t7Vl5ein0KpsKpg0eV1ZbU6Dsh3Fk4em6sa/fX4SVyO/mqxqsGDiMSyC3paUNFbJBefitUfnYKMXQER3u12RGSI58zj/WJYC4fS8ur/uPjeRHS48D97H5+7GWCq+Jx2EScsHvxHojrfddGgV2cFzol8pesm32RknCTS1bxib6KqcSHcbIO17JQxLjq/qZXcMuwmBjgsmEZ32KyqIVOrrge7DUBcaSksFjaHobz/jJqKiky7M1L5yo+EC8NGD76mStHrRPG4b9/d7PZ5wqSEXemGTBGIdfOgSBzduY8Rxe7t1AXETOrmJDzww0dDPb+Rrd7PanAb23o+bbgKxCa0sXkKjqeu+Ts6z3hjWar+9tTGM8iDZ4Fy8+sQZd/TXQXnQBCVnLBWZrDYfiu4HpzVIOGTP4tbSKxOrPvchlQvqP/31cR/cA+ksQR0Zz4lVpH3HsnlpbMeOtIKJlmvQvWFssktUg0Xle0r075UwoVY94/B8f2Du/j3x5EwIokxwAbrFVbRcaNj69KgPRR86HIfoaVfWSSAgfxfbPh1XACtnMVqblp5KCGwrab//24VS6y/8cZJWz+wk+EmivrDJ4u2tV0Xf4z7M8JvDTox5cqKhX/sX0hu/xmpzGo7qldczaClp2eID8+eMH4t7Y5j7GVDhJR+c+z918YT7fAOUcYqXo2eNBACd4CUki5W1wyrdqiOLE0IGVR8aSfX5v3Oh9jhC0F5g7kOqpbczWtXJc2It0rJFjp2kN470rXykFYxVHryYN5AkaU2nf8+EuN2TtOrJ0oahvU0/pSXLZ4vPrATmhg8tlFUmdB91X4UO+7oP0aVPai9En2SFsd+cUQKB+d0wkZsYt1lYcr71HuV+osI/0zSgmtntw/N/mNqTqQ1De5t+SkuW5YVnEg+bvtp29+/2JvSaxlKrikn4zg+Me548pngjX9IqUD/+HceymxBKKzzvrZLxgfkXZ+NrNu896bbxBOfyUBlY6XfOzUKzzFoG50mQIOCzxaoLrxLeTIKVtUPzgZfN6usW+urz5aUPfQh6+M+Nb+Hy3E/jY2xYvYBK2njIn9ULzDMdUvGcWJ87dpLcONJv0CitfKzuFi0iiJLZGLRfNsaREGUXjsn7nka7p2H0Ju7iTT9r6HT+Eca8wsCccsXggA/RW+747oXo8pC+91njA7Hfe248QboEAo+5P99vzvjlSZQ6LjQ3WVlNtoB3ZpMYw617/TMwbrvw3AT/Od4wVPlGs72gKd70s+buH924HbyCpMOmz78BF8ZvbdXBeEmf+if9RNg4yett27vdsaF/lQjp885sw30eba+ISZEVUJMMz2XSTzb97F8l4wNzxXs2UWrKGJf6/ia+/9ZT/qFNTgPKnoCtWhLRvDQNsyPpmxxW1o5Kep0fuSJ9AXcjm0IfgproNG4tXUTp1p+6Y6yBZ99aQMuF4aVtFl/bCXRuAe2vxb+j/Fn87ZfuY5sbj9ut+LjE9hks2Sd9C6HITGd8pOY5sRnZODJavhf/7uop/A8uRKjtw0h8+O4mWqLgdfWrEqQyXO5HkiY9049caSILrUPkfb+19Fto2hfx/NV5/GjE9z1pvUmcqCMTdxVfRWd2Psz+5VQIcYh+wD2ky4/m3DX9Gj4NGmg1P0Dl6SYwJT9v4zYVcvEOgUZt8z9XgoD/2337q0/cJX7JYGkJvtf6cvth999051jGerRam8zEp2wSWnn6Gpbds43+FhcSxJ5GK3gAneaLLpCdR+NHUKEXaLUj44+ryB9TD4/1uJLjfu/hpjsYpKBL6/H7sJ8Iq9TODXSeDkted+lrHrT/wh0evEbSaCwuuXNV96RpHJ7LeO0mOr9lEz+f5Br504/dhNyyTPpNY8k9Awdt2eejAqINjC84F7JZ6OHLz7oblLOg7LFWcT+5jJAKv/ll2UE+RKJYWbslkX3WPZRkfOc8Ox23cAmqwA73b4rm3HHRRLT4AT5tLSDofArcileNLHdvsiPch1vmvvimaWfo/4xA0vIRKta1aQdPgQZg3Q3p0lEXoj7igsumy2TsQEGqrFD4//4vd0jdMliWMc2czMRxY0wd4yJV51m5v4nbPVXcg8IpN3Fyzk2g2YkH6HIMNRtucm8pnqLruLA8ClxQ7oIXP3GXg3GIaDQzMMGMDyElSG9J4Uq76c5SFxp/1kTg7sfbP2+68KyJVsdl6tvdb3GT43G4jtuPc+73ShDQaoWwpRksd9y1vvT77twKMzoxLlXiCbbautcNMgvu/jkrz6Wy0Wyr4gLZmguRzvu//6QDdAmZGk03CVO6PQkTIZ6EkRB7YseVHOvLTejdd8e9Em6yY7H5l+41m090H4M4NL/fh+bsa05bsa18Bq22/hULEp63cNRNHD6CynNNd+5bP/k5it4YtrPlLptTcVje6cg49keQ8STghp80mPEG58JXd14O44dsypYy+9RvlbQysOY4ksXK2q2SatHDV666C7OS0stEuAdvO+Mr2NzdgAuisOZin5WfylFIZVD3E7U0KOl//SHsUgOfm3OoXj7nJ19K7qG4s936AseeJRdydrbHKxSie466A+sYsrRB4zjatPSUFi+61+Qldy7tQjaE3XZPbvLExAG6NOz7xtctav8KiesF5bIC5otfm75VLgcQBL8f935mWE50NxNCzlffqsjGp0mpLO0q5BcX3Dm84LttGheuC9sJ49/mV2tMx78mv0lO8IyfY1NTf4qkVH7DBShfXnKvo+bK5TuY0H2qo2VrQC9Ad/d4X29b/OQnSFx/yPTr7XHI1HYTMMvLB1KdhJlyE0VLwQcIVLcY2uUmvv4P9/r9Liq1m1uulJX34s//i3ETYUdRcqE8K81pqxr1Bew91EAmqqtN6NumtFp1N2F03o19DSy7a9q9kXUBuBsDQ+BXfV/+dffxqyZur9LaZvw1UzbubbdnsGAe6FaWyxjCc4mGNv7gXJzfX3PhORieZ0ygup+cfrIMPVpKvv+vVEvT1pXc6xiZeVDGmQWYiCswRhGHMhV3Hpz1IXo7cg+liwvufvP2aqO2fQBmyX3sdDeaUdZuNC+NpU1Lj+yZcPjPXoQJTiNbwpUAXVrZND/+Yxeiz2Fp2T1K3GvxmQsowop7aB8wHfG9090Tyye/ut0O6lb7djuoT1sPwEZPxsdQb5ULEY1ouhuQi9B/zu1qDVv3QU9S4n62N9GSXucmY+O2CbESoAcN/MPUH7sgac4HSR0XJO10QVIlxMCVztI73QdNn+B2yHQLK0G5D5mWn3SvVRwymZQnYW4FskmsFEho7z28x4V1f4FO89+O3GJH3sP/9PcGV+flPJcVflnYxJeyQvZ6sFlqS2Kq7u9bjVdi2Tk3Nl1zgfoH+IdfLCCKbl8f/iFw95fuI/osdF93H0zrPr+XR6u7SmU8OztSgUwmOBdxeH6fP/gpC5pjDRzyToKED5drSLoyUyprpVqatk6O7yOXT3FCL+uilzlWJUBCdBNU/Pejvp9fCTmzGMyUxr8c/9UnzuDIlWxV4d8Wxi1coqoL0ZvuIJjDp7++hqDzgQu951C9vICye98jd6sYTd3+Xb07xyUXjm/ryMqqEPjYPeB3pNVE2G0H9TCiHWH8hVF3pQury4loYBbGJL+68vIF6Z37MpbtsWy2vTCh+1R1f3cXJNmmD5IC4ya+23/jQu85VKoL0usHre3AVP/FvDtwt5bcz5eAxZ+H+NiFTNLSR9pJSshkg4fR6q5e0BYyfdNN7P7D1LWMbJu2B6XW2ystdm65Y1n+/hutEPheDfj8b+MqfwnMW51jK+1wiJIkm4Q+9HQze+OfkXvW0O8PIreTMplXumOg8j/fu9dkkQYla3LBuTi//5lu5XkVpB2rzbdCWrSMI5A1lpW1SQoWzyDaeQTZ3Si06Ob9pCzR3Zo4/28uYRKy1Ot8faFfgg97IG7ztCP+2WXTdMH3AuzS7aqeqFflatzDvTzUG8SzLd2HFD6rENGWuVD4nQtjarWVtV7n6zGrgyTpfy9s4EKx5QU3Pt8et/vb+bTa0771T/zj3p+le+WChM57D88p3yC0jwnRWyEQmDMu9P9LN6kx5yc1ensTtFzoN+U+2jIp8IsZP3EhVf5tKWQA0Rj5SUkWjhENYfLzyRKey9I7Us4kuBlPwfgWLSb5Fi2srE2etFpg65vsCuwjIFqLxcuYFNnLRVqe5FMIv3+Cf5CPP+KfC33bFSKi5EmCW8O4SPuMbdskOGogj/wkqG9PUFn58L3J/c9nd9yWSnkgY/vZmNClLWdggvfdhEWE5eBD9+3b/gPL72N56UPYKPK/HkDaB1VANG6ySSiQXBssogJIZyEWw3P9xrmhWp750HwMLVqkslYqFih5cesbvraZY09xIonWVbIXMUmWq4GIiJJhm7h+4TzGy/pev5Qdt1oWkZ3MSrJxiScvKt2Pme6PiSZL9o6YZIEJUQ6k18GM4bleUjnHQGp4foO0xX3uBRzD0ifDkHCcglvy8MSNQrODLVpofbIXxKTHS07AERElYbzV5j2NOvCV7dfc9YLhUVbs/Ja0nMl2cE6kBavOiYaS7tYfPjzng6Y6xtRBw5O+5pF5Bcm7gfOPJb9BEt0mLVvawVPu4L8J0m6eLVpoQ2ntBcEJOCKiLZpItXnsO79pUS6fgpVNNkm9Rg3YsaOJvLbYIZokVp0TDSX9PbPPP37CL7knPdimZXjSoqUTvITkW7RIH+enQOP32qNzsJ0XQcpx9UUf2/2gnjSqzXu4ZwIR0VZMptq8p1aTzzcRmGdAWWHd//icujneH9LmpOrcWhZ8EA0g/eBc+CX3PjznAJ+2NEOHrOr1NTf2ABLHPs4T9eoTsgKGq2DUcucDV1/cFiz+Ezf5HOR4Y8rhmZQn4tmyhYhoRC7AmVS1eQ9btmRLJXRhX4nv1YbsWVyfDTBlS7CmCaL1SNV5YFjwQTQAHcG5kPA8itgqIW1phw5ZM9a+5uzjnIq43cINkC7GvMHz4U7bp/03xrL6SmiZ+OUYQkQ0LItO53eRhl7LFo7b+vlVAkb6MjdAa7npzqN49ezSDvcp45up0vi9M9twn6+CiDakJzgXs09cRBA9CPYITQerzYc3vr7m4JL/lEi7hbg9DschPeZhvuT5cKeo/ID/Nlg8032QLDYtE78rYwgLAYiIBmDdM8gpvPfjJtLgw9jQBY7tfwsJHkm7+HihO1m/MrN3Hm3vWJf0XATRZjptecbi2Ee0AV3BuZDgVjZ+s5z5mjhWmw/nB1eMC83fxjj6miM6013yT2nojUMMvjSINwOVMJJWs+1d/lv/2kQFrypS1tZK/i5Rh5M9RESbsvN4ZzbdZxDZePK/+2/c/QY4bmsn7XXK9ho3db2Tb3V0u42NvE7WyIpE3j/Txvxki+U+X0Qb0BecC3ngfPXxR9j3fIJYbT4c6WveNuPZDNQHhUucxEibnA9tw/A8Xd3QnGPTmkzf+BO5Mby4dLa1klV03PyciGgj6bVoudP/+SdAqXyR1cxZcK/l9XWVtc+jqbasYGa7Ftrc9QuyPw8LV4nWoTM475EHYevbVbBlwnjNs9p8CM/9NN4M1NrjGAdp0cLqWh1ee3SO4Xla3GseBE8xNN+AMfetfF9WqBR2pZbRe/2KA31uFkpEdDcJP0+k1qJlLfFmoae4WahyjR8B28w5Vp17G7Q62uV+LWiAaBDSssVa5m5Ea9AdnItX99fjlgncsGV8jK4l7prJZqBffnJwTJuBwldPsEWLLgzPUyChuXvN6+61p/VZ7Fr141IB90UwOIvzj52DZucfP+HerDqIiKgnDvv6W0to8ea/tyjf48Zt6L62FN1Xv2JRMidAjXVbHVV+w00wBKw4p8HI5Etg5FmCHR+I7qA/OBcS6p5//EG2bhkDadGiPXTQQkJz2Qw0KI1nM1Ct7QaI4flkzTM0H1RfxbmIJ0CLVN08D3PrBWTB+f3PMDwnIvKs+9/F1Puab6TxJxZT97hxm+G5WnFrHQmFGygsO9/d2HFtfuNbv3l8A0SDeGe24Y6rbNxbE01QNoLzHgkVA3s/2LolKWzRMqheaO43A7XTSJxU2PqVFaSVhOdB5CbwOP6MUbenOUPzwawxFgW3ThVmgidrm8YyPCcicuwNbPtc/wophucZENpucFzEFpcWxjyzaaujWy3LPuc0FOl3zr0eiFbJVnAu4urz+1l9vlXdoJYtWjZXs32h+Vg2A3VHsn2R70UGyHsUT3AwPE/eDY5JQwv9pF4/CZKjTgFatthsthjz4Tl7nhNRUdn3MfXF76JxMRtBp4TnX93+DHueK9WoAbtK8wXcKDRudfTO7LVNv3Lnt9xXdy6CaBjvzNbc5zqIyMtecN7Tqz6PN0NjgD4sG73AgGoAPjS/tMuF5q9jXKG59Oh99XEGKVnhw/NbD8KaN0BJsL4KN7jF0HwUzcXwrp+bfeJiviubozOZbmsV9zzn5D8RFYnNXGje43uel493KzA5bmtz+QIwNSUTGw0Ug/UTOYO2OpLJBalKt6YJomFcn5VijzqIKMPBuZCQ5dXHH4H1G6KxAnRg7oFdNl2lzfnQfIdUms9gPLLTo5duk6reVx97iuHXlkmf0xd8FW6WWm6oUlq7dVSwKBtm5fG6eAPnn8j+ZmAS/MsENscPIso/GefOZTI072nUga/ZWrf3L8dtdbotW6wtQB5g51D+fIQKe7ZroREwPCfysh2c90gILBWgDLE2Y/1rxA0oB/PcVYPOTtkIdEyhea9dDgPDzJJzqR2w7/lo5hG4146rLbYmumOD0B4ZV9rBUznrdz7vVybkxatPnOG+LVvGez4i3eKWEhK+ZDU07/GVzd864wLaf1qMgHZskh+3par6NzvSsuXfuh/leJ8X2Qy089RI51IAtmuh0cj4zZ7nVHD5CM6FhAQrm4f6Jep8mFqtV9lZA21OQvOlpVdg7AGMC/ua54PfNFT6nnPcGZD1rTZkspObgG6dbe9a99fk2LSdF5EP87mcaFzZN4Hjx5DknqaBEjbv70o0tBa6wSjPya25iaBzcOCWElkgAe2OfzGPqCPjtmwaymNkcPJaNRC1xjNu/+QnwLbpG/ldzeVD80c23Qx0Pe/MNlDMTVQpCdLznO2qqMDyE5z3+M1D9z/DAL2fuYnIPZizsnMwvdDcooqxkXY5fD9yozfuRNFTYPXoRub9WCStNrjSIiFmesNflqrm7G+ale+NY3vjB9vODcLGqyhM1bfq4+QzjUPjgsW2e+93AdyzDNBHIq/XVXTaD+Kv/vf8tYfo9Yyeurfad4zQ+uR4cOO2reL67OjB7yAaP5LwvO7fl1ydt1sMzXsitmuhLZDw3EYPcsyjIspfcN7DAL1nHoEb4Gb3N0Abk41AJxGay4a2rPzPJ9mU8fzj98dBZa5aZGyRvBbSJsq9NhyLkmXs9KZf48ebjIbnxrxRmI1jfds5Vp+vw66MI8Gt+3H+sfMgGicJ4N59rc4AfWhynp4Ye0CqgQ9p/3md1efrigNzqVKd+vx+XL8wmXE7X+G5tFm9kUhoLkzQANFWvPvaXHfMq6N4Y571k1hUSPkNznvuDtCLcuPb1w6BFVmbktBcNgIde6W5O/5KvqqQ8sy3jYoeZADWC7q+vJ+TRWNi1ulxfqfshefxnhznHnuqUKsT7l69UvQg5o7AfP8p1A9wtQpNzp0BuqyA4Xm5Fhmzz/oq8+sXXkZR9KrPd32l6p6qn+IEi7c6MJdWPZPuby/n7X/fqme8Ora3qW5yk1DbSuxzTlsnx+P1C88UbMXNTb859PULzHEKyqCIDl+uurDhh+57IfL5Gkg7hGdZ2Tmg2lUXmn+6C9GOtzG2jUCFbAYacSKjaKqXQ0Q46d7/oyjMmCtBV/THCBbP5DL0PHJFz0OxQR3nHn9m4K8/crnmftMPoftY5DWsJ//3K+uJe5jb6GXMPjH+peXVywaRiaCPxfnH9Ra56Hvdxv96VapAu11xYYH7jjnS/dliPk/F4r7VEpK+M8s9ByrPA8sLVX+dNSZE0cZtORYCvIy/mtXREqRSAxZ/vhtB6S/c+7Eb2RFPGI9jEmrvIffgiwom6frscOfB3kMKJ5+MC4tfzdIxNBnf/oMQ5fIxd/YfQz7HO5kE/GOUPz8z8gSgyuPZvWPXZ/XeX1aqBq22qvvL/Fecr0WWQ0vLgHbwYL6q0FeqstiaZVA+NF/cPf7Q3B1fUkHI0Lx4Vq16gfS1z2s1kr2rwpx9zMcv8oHq4OR90btx1u2VUryGxXr3K7f7n+e5krE7hrhjILL7fA/zSYTmRMNo1ONN9v7Nt6qY+vyfdKvQJYiyKE6lce/fetUFCvt8WxaG5rHitfiJq8utG7d7x4KW0FzEKwLmsW3q/oxsbHh7f4Bxrdxgn3NKklSfvzN7wh2zeWqPfOeqmdrEV82QOkWukFjt0J8dQGCeBAL34XvGZui1yXl157jUfuZC8793obmR0DzEOFmc4GagtEKqSKVSzaxUfGR1LLbdzw33cPhiYcJOTRXnMHM4/9geDMuvhFgZ+9I+/mzhjqFRHbpcQYCj3RUsIuv3cRKWL7j3/qL7OI/y0lwqrVjiyukO9JEK6hK00ve6pfN6xVWtIYKgAhNIFXql+yt5e86Sa9+C+1e9jHb7XO57mCchnysU4uMAbtw2xo3bn89lIlTqnael8ln3o4eh632Q13TO/Y1OjH0SSiqES+UPMUnDVrbuPaRwBZivOL8ftDF/fJVOuiP64QyuuolXzUS4hO2fn0tsXFN5PPuKc733l3HFuar7Swbna1kJ0Y1cVMPuz2p7reKHTQbmo3n+KvBlaw+i6HWMOzT3myKyvzOtQcLLjjxgZypEvx2Wm+ASgi/OFW78URWco+mCotGXjqbbCoSB+aiyOXaI3rnTdPcvl1zoeim1sJxoHGo199g9N43OVyuIrDxLPIDbKxqz+NzVH5KeY2X5iLI9udK973PBITruvs/d+2UlLF9Lr52OCWQCOs0AvXc9ZKsjyp/KgWks33MgA+NdfI2z0Tk/tsmKMqI1MDjfzPffmkHZXVStfTh+OPXV6CKN165XmTXHoGELqi40j5ar7nun+97PMYnO4PwTJ0C0meob02hvryictLsddEnICfuXKC1eLPRkXZ6C8544QP8jjD/g6U76ds750JTXsa1bCdGD31dwn9Kv/zzpjR/X0MI1/Jhty6ggeoHpVHkGnUhC09/C6v7CCgtzPPesEV3LfEiqUX+IvjJuQ9+4LUG5idzkdnANUeta7lYYpLMa4PYkRGDPuXPsEq6/NgeiPJMqdD2Thndf4xiW0wAYnA9LgvSg7U5+CdODB1zQMHNH+JrUa9r/wOkuqO7E9pVZi3OsLh9Rzb2kf/+mQcucdC/vSYydrfve1kSjkDCsbWcmMNb09I053Qk6E33gbu4/cEFXg0FXH13BOVxwntyx4Fu4lJ50N5NP9lUyi1H/G6snXnw7Dl7Hxsq3cyk9EE/42xB379+R5Nhxx7kgkyJW3ms3fgRziDp/w4pyojt873vAP0zNoBTIpJecn7/lzsoQa++1M45ntdXnra8ktvKs8ZH7OzVQ+vwag/IJ6gW4Hbh7PWlvsOaxMMZxW1YUyCogdwxEZg4l/E2hJktWrxI54F6d73ZbTIitvO6rJyHk9fX3Qe0/ZZsjKrTfPuTONfeMYdy5Fo91487SZCyToPwDoPQBtn12kdc4GhaD8yT4StEdcagVuHDLmm+iVy1qVqpGw7V/s3/IlBPXBVXdGxcTferDqk5pDtu+aDJgSIDfBPTTXbA7f+jChOMYvxsuzHoQREm6c6yBvRe2dJ//sfE3He7DTK+/kmJlvJHbiSb8g5L8tP2l/zHHnMHkOTjv1zveJISFmzD2EzgbHWfd46t3bMlxFbkHxbZ7EOfES7pWJv3L98Xv5VbGje6P5V4FZReSdxbc2PGBC8kX+D4TbUEvwGt/dcafm23c577d5cbSb7rngt75KiFc6L81tnv+rsOHdf7r4ucMP6ll3TNG4MZnv/LHBQhfNhkgKNQ/ueKPg2g3EHxzZcz2x8OG77+7Fpv4fTV+MnPBHwf9779x738nWmCIe4dVq0RWJram/Xm33mt++1xr9p1n8yjjI05EEW1C2rrIdS8yoTt/Qn/Ng3wf/de7cM3fu951TgLykvu5VnuOYxwlgcE55Z+0ZsGibAIq/cxnMH43ENx6hOEjUU4VJTgnIiIiIiIiKrDhdjgmypo/fM99WtznQvO3MZnQfJ6hORERERERERERUbaVQZRH0s+82TD49NfHAHMak+FCc8vQnIiIiIiIiIiIKOMYnFP+SGuW5qVd6Ox4/Y7N7capG5qzvysREREREREREVHWMTin/JAq879/06CzWEG045W+jVnHjaE5ERERERERERFRjrDHOeVD7WdxlXnbvNTtZx5iMmQj0AcZmhMREREREREREeUHK84p+3xrlo/3+Cpz2ElsANpzgxuBEhERERERERER5Q+Dc8ouCcyDlkF7+aQLzE9iomwdweIJhuZERERERERERET5w+Ccsqe/l7m0ZgEmWWXuRGdw/okTICIiIiIiIiIiolxij3PKlud+emcv80mG5i6xt6cYmhMREREREREREeUbK84pG/zmn78yuPXJAZgdL7kAO8RkWfe/F/Dq/jMgIiIiIiIiIiKiXGNwTrr12rI0P55BJ3oJJqhg4sxNRNFTmN3fABEREREREREREeUeg3PSSQLzZiNuy2J3/hA2Og6DNMwjiB7B+f1NEBERERERERERUSEwOCd9/vC9ODCPdh4D5MNOIw0WV1G69RTqBxdAREREREREREREhcHgnPR4/iqwDINPfy2B+cnUAnO/CWj0Ml7lJqBERERERERERERFxOCc0iUtWT5pxIH5Z4tVGPND97MhUmNuwkYvuNC8DiIiIiIiIiIiIiokBueUjv4e5p3tB3xgbkyIdMX9zOvsZ05ERERERERERFRkDM5psvoD814Pc5NaS5Ye95ey5xAsnmA/cyIiIiIiIiIiImJwTpNRvSqfjQvMp1Pf9HMVac1iX8Sr+8+AiIiIiIiIiIiICAzOaZx61eVByyBarKAj7Vh2VHyBtw43EERPsTULERERERERERER9WNwTsnqheX91eWRfdL9cMb9jBbuLxm9jGDpFFuzEBERERERERER0Z0YnFMypBVLaSkOy7F9RmF1ec+8C/KfxewTDRARERERERERERGtgcE5ja4Xli+X3A8WK1iyTyLYedT3LtdTXd5zu8r8PKvMiYiIiIiIiIiIaH0Mzmlw0oblkwbQdrH4rTZuh+XmKCIz7b6FwgpzwSpzIiIiIiIiIiIiGhiDc1pfr1+5VJXbAN02LAfQMd+FMQeUh+XC/cXsiwgWz7DKnIiIiIiIiIiIiAbF4Jxuq10FPnHfLrmgvLMdK/3KfVU5HgZ2zPiv821Y1Iblwrr/NVAKXkD90TkQERERERERERERDYHBeVFJSP7x14Dlz4DOssH2bS4oXwzdr1TQtg/ALD0Qb+7pBPoalq/P3HSfTuDVx86BiIiIiIiIiIiIaAQMzvNMwnF8HfjkV8CX7rvbYNBuAS3TDclvzSAyD7hk/AEsL8240Dn0vy9TQfmKbluWW2dQZ1sWIiIiIiIiIiIiGh2Dc6186L2GZvfbbV9z795nQGkn8NmtOBQXy4jf1fZiNxz/eBrouIAc9+GWuc991QyMCX1/8u5vgVHddmUz3bYs9lnU9zdBREREREREREREtEUMzjV5/qpUhht02r22KWuJf3751jSWXfgdte51wfi0D8V7vx7J15ju749wOyDv/RGZDsp74sDc2hcxu78BIiIiIiIiIiIiooQwONeg9jPgv/7K4LPFqku3j8CYmbgifCO9FLwbjGeyu8pIJPWfQ2RfYGBORERERERERERE48DgPG1SZd78eA+i6HXfQsXLRUV40uRFaboZglM4z40/iYiIiIiIiIiIaHwYnKdJ+ph/uFx1mfBZ0HoYmBMREREREREREdFEMThPU3NxtwuEGZqvjT3MiYiIiIiIiIiIKBUMztMiLVo+X3obdCcG5kRERERERERERJQqBudpkY1AV3qaE2AWgM45tMt1vPboHIiIiIiIiIiIiIhSwuA8NeZJkPQvdyG5/VMEt86gfnABRERERERERERERCljcJ4WgxDFZH11ubUX3cd5tmMhIiIiIiIiIiIibRicp2cGxRL3LjfBJQRfnGN1OREREREREREREWnF4JzGqRuW27/EMur48f4miIiIiIiIiIiIiJRjcJ6epvsIkS+2+zkOy9uli9zok4iIiIiIiIiIiLKGwXlq7DXAhMi+vrA8uITlziVWlhMREREREREREVGWMThPS4Q6AhxF9tjut033j7jk/h3XUF5qsGc5ERERERERERER5QWD87TM7m/g8JWrMNgH3W4H5VJVDvuXaLlvWVVOREREREREREREOcXgPE0l+yyi4H0XRu+CDt2Q3CzA2jmY6ANY8wFKixdZUU5ERERERERERERFweA8TfX9TXz/rUfcu/D2hMNz2/f9pgvHXUje+ciH5L6a/PEmiIiIiIiIiIiIiAqKwXnaXnt0DtXLDyIyr7sfzbgPg62xa/xc030suF9xAbn9pfu2iU5pDtu+aLKSnIiIiIiIiIiIiGg1Buca1H2/8Adx6HIl3jDUPIA4RL+DcSG3vR10SwDe/3O9UFxIMB51FtiLnIiIiIiIiIiIiGg4DM41kQ1DIRtwEhEREREREREREVFaAhARERERERERERER0QoG50REREREREREREREfRicExERERERERERERH1YXBORERERERERERERNSHwTkRERERERERERERUR8G50REREREREREREREfRicExERERERERERERH1YXBORERERERERERERNSHwTkRERERERERERERUR8G50REREREREREREREfRicExERERERERERERH1YXBORERERERERERERNSHwTkRERERERERERERUR8G50REREREREREREREfRicExERERERERERERH1+f8B7Ye6xIjQpLAAAAAASUVORK5CYII=;" parent="1" vertex="1">
          <mxGeometry x="145" y="30" width="328.12" height="62.71" as="geometry" />
        </mxCell>
      </root>
    </mxGraphModel>
  </diagram>
</mxfile>
